<svg xmlns="http://www.w3.org/2000/svg" version="1.1" xmlns:xlink="http://www.w3.org/1999/xlink" xmlns:svgjs="http://svgjs.dev/svgjs" width="1500" height="1500" viewBox="0 0 1500 1500"><rect width="1500" height="1500" fill="#ffffff"></rect><g transform="matrix(0.6666666666666666,0,0,0.6666666666666666,250,250)"><svg viewBox="0 0 280 280" data-background-color="#ffffff" preserveAspectRatio="xMidYMid meet" height="1500" width="1500" xmlns="http://www.w3.org/2000/svg" xmlns:xlink="http://www.w3.org/1999/xlink"><g id="tight-bounds" transform="matrix(1,0,0,1,0,0)"><svg viewBox="0 0 280 280" height="280" width="280"><g><svg viewBox="0 0 280 280" height="280" width="280"><g><svg viewBox="0 0 280 280" height="280" width="280"><g id="textblocktransform"><svg viewBox="0 0 280 280" height="280" width="280" id="textblock"><g><svg viewBox="0 0 280 280" height="280" width="280"><g transform="matrix(1,0,0,1,77.61001248593067,74.00336708925556)"><svg viewBox="0 0 124.77997502813868 131.99326582148888" height="131.99326582148888" width="124.77997502813868"><g id="icon-0"><svg xmlns="http://www.w3.org/2000/svg" xmlns:xlink="http://www.w3.org/1999/xlink" version="1.1" x="0" y="0" viewBox="1.9000000000000001 0.5188611699158103 44.28113883008418 46.84094645121953" enable-background="new 0 0 48 48" xml:space="preserve" height="131.99326582148888" width="124.77997502813868" class="icon-xg-0" data-fill-palette-color="accent" id="xg-0"><g fill="#010c80" data-fill-palette-color="accent"><g fill="#010c80" data-fill-palette-color="accent"><g fill="#010c80" data-fill-palette-color="accent"><path fill="#010c80" d="M24.9 43.4c-3.7-3.6-7.3-7.4-11.3-10.7-3.4-2.8-5.9-6.6-9.4-9.3-0.9-0.7 3.8-3.6 4.3-3.9 1.9-1.4 3.7-2.9 5.5-4.4 4-3.3 7.6-7 11.1-10.8 2-2.2 2.1-1.5 3.6 0.6 2 2.7 4 5.3 5.9 8 2.8 3.8 5.7 7.5 9.2 10.7 1 1-17.9 17.8-19.8 19.6-0.6 0.5 0.3 1.4 0.9 0.9 3.3-3 6.7-5.9 10-8.9 3.7-3.4 6.6-7.9 11-10.4 0.3-0.2 0.4-0.7 0.1-1C38.5 17.6 32.6 8.8 27.4 0.8c-0.2-0.3-0.7-0.4-1-0.1C19.3 9 11.2 16.2 2.2 22.4c-0.4 0.3-0.4 0.8 0 1.1 3.9 3 6.6 7 10.5 10.1 4.1 3.2 7.6 7.1 11.3 10.7C24.6 44.8 25.4 43.9 24.9 43.4L24.9 43.4z" data-fill-palette-color="accent"></path></g></g><g fill="#010c80" data-fill-palette-color="accent"><g fill="#010c80" data-fill-palette-color="accent"><path fill="#010c80" d="M26.1 2.3c0.1 5.9 0.1 11.2-1.7 16.9-1.3 4.5-1.6 9.6-1.4 14.2 0 0.8 1.3 0.8 1.3 0-0.2-5.8 0.6-11.4 2.3-17C28 11.9 27.5 7 27.4 2.3 27.4 1.5 26.1 1.5 26.1 2.3L26.1 2.3z" data-fill-palette-color="accent"></path></g></g><g fill="#010c80" data-fill-palette-color="accent"><g fill="#010c80" data-fill-palette-color="accent"><path fill="#010c80" d="M22.9 33.1c-3.3 5-7.1 9.3-11.7 13-0.4 0.3-0.1 0.9 0.3 1 0.7 0.3 0.9 0.3 1.8 0.2 3.1-0.6 6.2-1 9.3-1.2 5.2-0.4 10.5-0.3 15.7-0.4 0.5 0 0.8-0.5 0.5-0.9-1.5-2.4-4.5-4-6.7-5.8-2.6-2-5.3-4-7.9-5.9-0.7-0.5-1.3 0.6-0.6 1.1 2.1 1.5 4.2 3.1 6.2 4.6 0.4 0.3 6.2 5.7 6.8 5.7-4.7 0.1-9.4 0.1-14.1 0.3-2 0.1-4 0.3-5.9 0.6-1.1 0.2-2.2 0.4-3.4 0.5 0.8-0.7 1.6-1.4 2.4-2.2 3.2-3 5.9-6.5 8.3-10.1C24.5 33.1 23.4 32.4 22.9 33.1L22.9 33.1z" data-fill-palette-color="accent"></path></g></g><g fill="#010c80" data-fill-palette-color="accent"><g fill="#010c80" data-fill-palette-color="accent"><path fill="#010c80" d="M3.5 23c5.7-4.9 14.1-7.6 21.5-7.3 7.3 0.2 14 4.4 20 8.2 0.7 0.4 1.3-0.6 0.6-1.1-6.9-4.4-14-8.1-22.3-8.4-7-0.2-15.4 3.2-20.7 7.7C2 22.7 2.9 23.6 3.5 23L3.5 23z" data-fill-palette-color="accent"></path></g></g></g></svg></g></svg></g><g id="text-0"><path d="M28.963 102.434l-15.954-11.584 1.238-3.65 20.25 15.759c0.428 0.351 0.878 0.774 1.35 1.268 0.465 0.492 0.878 1.055 1.239 1.688 0.352 0.638 0.579 1.34 0.681 2.107 0.1 0.773-0.004 1.615-0.314 2.526v0c-0.061 0.178-0.151 0.393-0.271 0.643-0.125 0.242-0.249 0.473-0.374 0.693-0.122 0.214-0.22 0.376-0.293 0.487v0l-2.743-0.93c0.045-0.091 0.117-0.241 0.216-0.449 0.097-0.202 0.16-0.347 0.191-0.436v0c0.389-1.147 0.455-2.126 0.198-2.939-0.257-0.812-0.932-1.63-2.023-2.455v0zM9.772 100.388l17.201 0.124 3.882 0.337 0.39 2.871-22.747 0.423z" fill="#0080ff" data-fill-palette-color="primary"></path><path d="M29.529 80.322l-0.387-0.239c-1.723-1.064-3.066-2.347-4.027-3.85-0.953-1.505-1.457-3.109-1.513-4.811-0.047-1.705 0.442-3.387 1.467-5.048v0c1.039-1.683 2.334-2.892 3.887-3.625 1.554-0.725 3.216-0.996 4.984-0.813 1.771 0.192 3.518 0.82 5.242 1.883v0l0.386 0.238c1.717 1.06 3.059 2.339 4.024 3.836 0.968 1.506 1.472 3.11 1.513 4.812 0.037 1.707-0.46 3.396-1.492 5.068v0c-1.032 1.672-2.319 2.873-3.861 3.605-1.539 0.726-3.201 0.997-4.985 0.813-1.775-0.186-3.521-0.809-5.238-1.869zM31.051 76.992l0.386 0.238c1.174 0.724 2.376 1.21 3.608 1.456 1.232 0.246 2.38 0.185 3.446-0.185 1.066-0.37 1.949-1.121 2.649-2.254v0c0.693-1.122 0.965-2.243 0.818-3.362-0.147-1.119-0.607-2.173-1.379-3.164-0.769-0.996-1.74-1.857-2.914-2.581v0l-0.386-0.238c-1.174-0.724-2.378-1.207-3.613-1.448-1.232-0.246-2.385-0.183-3.461 0.189-1.075 0.372-1.963 1.125-2.663 2.258v0c-0.686 1.111-0.953 2.23-0.803 3.358 0.15 1.128 0.612 2.184 1.388 3.169 0.776 0.985 1.75 1.839 2.924 2.564z" fill="#0080ff" data-fill-palette-color="primary"></path><path d="M61.575 48.561l-11.311-11.523 2.593-2.545 14.711 14.987-2.463 2.418zM58.969 44.926l1.052-1.09c1.305 1.33 2.28 2.702 2.923 4.117 0.643 1.414 0.83 2.843 0.559 4.286-0.27 1.444-1.126 2.873-2.566 4.287v0c-1.469 1.442-3.079 2.174-4.83 2.196-1.756 0.017-3.611-0.971-5.567-2.964v0l-9.494-9.672 2.586-2.537 9.515 9.693c0.891 0.907 1.711 1.479 2.46 1.714 0.749 0.235 1.425 0.242 2.027 0.019 0.606-0.227 1.14-0.567 1.6-1.02v0c1.09-1.07 1.749-2.127 1.978-3.171 0.219-1.045 0.114-2.064-0.314-3.057-0.428-0.994-1.072-1.927-1.929-2.801z" fill="#0080ff" data-fill-palette-color="primary"></path><path d="M74.324 19.94l1.43 2.331-9.694 5.948-1.43-2.331zM65.219 19.535l3.097-1.9 10.936 17.822c0.376 0.614 0.751 1.019 1.125 1.216 0.379 0.194 0.748 0.248 1.105 0.162 0.362-0.08 0.714-0.225 1.059-0.436v0c0.252-0.155 0.505-0.341 0.757-0.56 0.253-0.218 0.435-0.385 0.546-0.5v0l1.532 2.458c-0.195 0.222-0.468 0.492-0.818 0.809-0.348 0.308-0.797 0.631-1.347 0.969v0c-0.751 0.461-1.529 0.737-2.334 0.828-0.814 0.089-1.623-0.105-2.428-0.582-0.808-0.467-1.576-1.295-2.304-2.481v0z" fill="#0080ff" data-fill-palette-color="primary"></path><path d="M88.704 3.772l10.36 27.953-3.406 1.262-10.36-27.952zM94.329 21.415l-1.441 0.469c-0.641-1.807-0.889-3.541-0.744-5.202 0.145-1.661 0.663-3.119 1.553-4.375 0.888-1.262 2.127-2.188 3.717-2.776v0c1.3-0.482 2.508-0.657 3.626-0.526 1.118 0.131 2.128 0.621 3.031 1.47 0.903 0.849 1.675 2.138 2.316 3.866v0l4.78 12.898-3.407 1.262-4.794-12.935c-0.383-1.035-0.84-1.812-1.37-2.333-0.53-0.521-1.138-0.816-1.824-0.885-0.692-0.066-1.46 0.057-2.306 0.371v0c-0.839 0.311-1.534 0.769-2.084 1.375-0.546 0.597-0.954 1.297-1.224 2.1-0.267 0.809-0.387 1.657-0.359 2.544 0.023 0.895 0.2 1.788 0.529 2.677z" fill="#0080ff" data-fill-palette-color="primary"></path><path d="M140.083 13.405l0.024-0.454c0.104-2.022 0.584-3.816 1.44-5.382 0.862-1.559 2.026-2.772 3.492-3.639 1.473-0.86 3.183-1.24 5.132-1.14v0c1.975 0.102 3.658 0.657 5.047 1.665 1.383 1.015 2.419 2.341 3.109 3.981 0.683 1.645 0.972 3.479 0.868 5.501v0l-0.024 0.454c-0.104 2.016-0.581 3.807-1.429 5.372-0.856 1.573-2.02 2.786-3.492 3.64-1.479 0.853-3.199 1.229-5.162 1.128v0c-1.962-0.101-3.634-0.653-5.017-1.654-1.377-1.001-2.413-2.327-3.109-3.98-0.69-1.646-0.983-3.476-0.879-5.492zM143.735 13.139l-0.024 0.453c-0.071 1.377 0.081 2.665 0.458 3.864 0.376 1.198 0.982 2.176 1.819 2.933 0.837 0.757 1.92 1.17 3.25 1.239v0c1.317 0.068 2.43-0.232 3.341-0.898 0.91-0.667 1.614-1.577 2.111-2.731 0.504-1.153 0.792-2.418 0.863-3.795v0l0.024-0.454c0.071-1.377-0.085-2.665-0.468-3.864-0.376-1.198-0.986-2.18-1.828-2.944-0.843-0.764-1.93-1.181-3.26-1.249v0c-1.303-0.067-2.414 0.236-3.331 0.909-0.917 0.673-1.621 1.587-2.112 2.74-0.491 1.154-0.772 2.419-0.843 3.797z" fill="#0080ff" data-fill-palette-color="primary"></path><path d="M174.993 28.661l-3.494-0.997 6.379-22.338c0.619-2.167 1.688-3.657 3.207-4.469 1.521-0.818 3.313-0.932 5.377-0.343v0c0.395 0.113 0.786 0.249 1.174 0.409 0.38 0.164 0.749 0.354 1.107 0.568v0l-0.976 2.723c-0.25-0.127-0.538-0.248-0.863-0.362-0.323-0.12-0.646-0.226-0.969-0.319v0c-1.093-0.312-2.04-0.229-2.841 0.249-0.801 0.478-1.375 1.325-1.723 2.541v0zM185.048 9.692l-0.751 2.63-10.956-3.128 0.751-2.63z" fill="#0080ff" data-fill-palette-color="primary"></path><path d="M220.282 27.383l-11.47 17.591-3.043-1.984 11.47-17.591zM220.064 20.567v0c0.309-0.473 0.723-0.782 1.242-0.925 0.515-0.138 1.066-0.016 1.652 0.366v0c0.586 0.382 0.923 0.839 1.011 1.37 0.089 0.54-0.02 1.047-0.329 1.52v0c-0.305 0.468-0.721 0.767-1.248 0.897-0.517 0.128-1.069 0.002-1.655-0.38v0c-0.586-0.382-0.922-0.834-1.007-1.356-0.082-0.527 0.03-1.025 0.334-1.492z" fill="#0080ff" data-fill-palette-color="primary"></path><path d="M233.788 42.869l-12.071 12.946-2.657-2.478 14.322-15.359 2.583 2.409zM240.897 44.835l-2.264 2.428c-0.18-0.26-0.362-0.49-0.545-0.688-0.178-0.194-0.39-0.405-0.637-0.635v0c-0.807-0.752-1.64-1.221-2.498-1.405-0.868-0.184-1.723-0.126-2.564 0.175-0.846 0.296-1.655 0.784-2.427 1.463v0l-1.152-0.274c1.156-1.24 2.379-2.22 3.668-2.941 1.289-0.711 2.574-1.049 3.856-1.013 1.282 0.036 2.476 0.57 3.583 1.603v0c0.182 0.17 0.38 0.391 0.594 0.665 0.21 0.278 0.338 0.486 0.386 0.622z" fill="#0080ff" data-fill-palette-color="primary"></path><path d="M240.494 61.212l0.372-0.261c1.659-1.162 3.368-1.887 5.129-2.176 1.759-0.28 3.432-0.108 5.018 0.514 1.584 0.632 2.936 1.746 4.055 3.344v0c1.135 1.62 1.732 3.288 1.793 5.004 0.051 1.714-0.357 3.347-1.225 4.899-0.877 1.551-2.144 2.907-3.803 4.069v0l-0.372 0.261c-1.653 1.158-3.358 1.884-5.115 2.179-1.766 0.293-3.439 0.121-5.017-0.514-1.583-0.641-2.938-1.766-4.065-3.375v0c-1.127-1.609-1.722-3.267-1.784-4.973-0.058-1.701 0.35-3.334 1.225-4.9 0.873-1.556 2.136-2.913 3.789-4.071zM242.951 63.927l-0.372 0.26c-1.13 0.791-2.051 1.704-2.764 2.738-0.713 1.034-1.111 2.113-1.194 3.239-0.082 1.125 0.259 2.234 1.023 3.324v0c0.757 1.08 1.678 1.774 2.764 2.081 1.086 0.307 2.236 0.302 3.452-0.015 1.219-0.312 2.393-0.863 3.523-1.655v0l0.371-0.261c1.13-0.791 2.049-1.707 2.759-2.746 0.713-1.034 1.112-2.118 1.196-3.252 0.084-1.135-0.256-2.248-1.021-3.339v0c-0.749-1.069-1.671-1.758-2.766-2.067-1.095-0.309-2.249-0.302-3.46 0.021-1.211 0.323-2.382 0.88-3.511 1.672z" fill="#0080ff" data-fill-palette-color="primary"></path><path d="M264.543 90.401l-15.404 5.969-1.313-3.387 19.582-7.588 1.243 3.208zM259.377 91.483l-0.49-1.434c1.798-0.668 3.528-0.941 5.191-0.82 1.663 0.12 3.129 0.617 4.397 1.488 1.275 0.87 2.219 2.095 2.831 3.676v0c0.501 1.292 0.694 2.498 0.579 3.617-0.115 1.119-0.59 2.137-1.425 3.053-0.836 0.915-2.113 1.706-3.832 2.372v0l-12.825 4.97-1.313-3.387 12.863-4.985c1.029-0.399 1.8-0.867 2.313-1.405 0.513-0.538 0.799-1.15 0.857-1.836 0.056-0.693-0.079-1.459-0.404-2.301v0c-0.323-0.834-0.792-1.522-1.406-2.063-0.605-0.538-1.311-0.935-2.117-1.192-0.813-0.255-1.663-0.362-2.549-0.322-0.895 0.037-1.785 0.226-2.67 0.569z" fill="#0080ff" data-fill-palette-color="primary"></path><path d="M2.605 140.983c0-6.374 5.167-11.542 11.542-11.542 6.374 0 11.542 5.167 11.541 11.542 0 6.374-5.167 11.542-11.541 11.542-6.374 0-11.542-5.167-11.542-11.542z" fill="#0080ff" data-fill-palette-color="primary"></path><path d="M256.916 140.983c0-6.374 5.167-11.542 11.542-11.542 6.374 0 11.542 5.167 11.542 11.542 0 6.374-5.167 11.542-11.542 11.542-6.374 0-11.542-5.167-11.542-11.542z" fill="#0080ff" data-fill-palette-color="primary"></path></g><g id="text-1"><path d="M12.89 185.66l21.07-0.657 1.345 3.902-27.434-0.063c-0.596-0.015-1.252-0.081-1.968-0.197-0.72-0.107-1.438-0.312-2.154-0.613-0.722-0.299-1.377-0.742-1.964-1.33-0.593-0.585-1.056-1.361-1.389-2.328v0c-0.068-0.197-0.127-0.44-0.177-0.729-0.058-0.293-0.108-0.571-0.149-0.835-0.041-0.263-0.064-0.465-0.07-0.605v0l2.929-1.01c0.022 0.106 0.06 0.278 0.114 0.516 0.047 0.24 0.087 0.408 0.12 0.503v0c0.423 1.228 1.012 2.099 1.766 2.615 0.748 0.518 1.848 0.768 3.301 0.751v0zM30.45 174.823l-14.611 11.154-3.5 2.264-2.221-2.17 18.95-15.255z" fill="#0080ff" data-fill-palette-color="secondary"></path><path d="M29.2 202.013l0.402-0.251c1.843-1.151 3.713-1.828 5.61-2.029 1.893-0.207 3.668 0.069 5.324 0.827 1.656 0.758 3.038 2.025 4.146 3.799v0c1.119 1.792 1.662 3.606 1.628 5.444-0.037 1.832-0.566 3.551-1.586 5.156-1.017 1.611-2.446 2.992-4.289 4.143v0l-0.403 0.251c-1.832 1.144-3.697 1.822-5.596 2.033-1.896 0.216-3.67-0.059-5.323-0.827-1.654-0.768-3.038-2.044-4.154-3.831v0c-1.116-1.786-1.656-3.59-1.621-5.413 0.035-1.823 0.564-3.541 1.587-5.155 1.019-1.62 2.444-3.002 4.275-4.147zM31.661 205.057l-0.403 0.252c-1.255 0.784-2.292 1.709-3.109 2.775-0.817 1.066-1.305 2.196-1.464 3.389-0.149 1.196 0.154 2.399 0.91 3.609v0c0.749 1.198 1.691 1.99 2.828 2.374 1.146 0.387 2.377 0.447 3.693 0.179 1.317-0.267 2.602-0.793 3.858-1.577v0l0.402-0.251c1.255-0.784 2.292-1.709 3.109-2.775 0.817-1.066 1.302-2.202 1.454-3.407 0.161-1.203-0.137-2.409-0.893-3.619v0c-0.741-1.187-1.69-1.975-2.845-2.363-1.149-0.392-2.379-0.449-3.688-0.171-1.313 0.273-2.597 0.801-3.852 1.585z" fill="#0080ff" data-fill-palette-color="secondary"></path><path d="M54.477 242.676l12.009-12.406 2.792 2.702-15.617 16.133-2.654-2.569zM58.291 239.78l1.195 1.101c-1.385 1.431-2.826 2.508-4.322 3.232-1.496 0.733-3.017 0.974-4.563 0.724-1.555-0.251-3.106-1.125-4.653-2.622v0c-1.581-1.53-2.408-3.234-2.481-5.113-0.069-1.873 0.938-3.886 3.021-6.036v0l10.072-10.405 2.784 2.695-10.1 10.434c-0.945 0.976-1.533 1.869-1.762 2.676-0.234 0.803-0.223 1.526 0.035 2.169 0.258 0.643 0.633 1.203 1.127 1.68v0c1.175 1.137 2.323 1.813 3.444 2.028 1.126 0.21 2.211 0.071 3.255-0.417 1.053-0.488 2.036-1.204 2.948-2.146z" fill="#0080ff" data-fill-palette-color="secondary"></path><path d="M86.802 244.111l-1.512 2.506-10.411-6.284 1.512-2.505zM82.712 235.265l3.317 2.003-11.55 19.137c-0.4 0.662-0.6 1.221-0.6 1.677 0.003 0.45 0.133 0.827 0.39 1.132 0.254 0.295 0.566 0.554 0.935 0.776v0c0.271 0.163 0.573 0.314 0.905 0.452 0.327 0.135 0.573 0.228 0.739 0.28v0l-1.579 2.655c-0.314-0.079-0.705-0.205-1.174-0.379-0.466-0.179-0.992-0.446-1.58-0.8v0c-0.806-0.487-1.451-1.092-1.933-1.815-0.485-0.733-0.7-1.593-0.646-2.583 0.052-0.998 0.464-2.136 1.236-3.415v0z" fill="#0080ff" data-fill-palette-color="secondary"></path><path d="M103.048 240.859l-10.907 29.955-3.641-1.326 10.907-29.955zM95.427 259.134l-1.496-0.609c0.725-1.913 1.721-3.497 2.988-4.755 1.264-1.251 2.695-2.083 4.292-2.497 1.603-0.411 3.255-0.308 4.955 0.312v0c1.391 0.506 2.499 1.2 3.324 2.08 0.819 0.878 1.299 1.977 1.442 3.296 0.149 1.321-0.113 2.905-0.785 4.751v0l-5.034 13.825-3.651-1.329 5.048-13.863c0.403-1.106 0.569-2.055 0.5-2.847-0.07-0.792-0.362-1.453-0.878-1.984-0.515-0.531-1.228-0.963-2.139-1.295v0c-0.898-0.327-1.778-0.436-2.64-0.327-0.865 0.115-1.684 0.407-2.457 0.877-0.779 0.468-1.465 1.074-2.058 1.818-0.595 0.75-1.065 1.599-1.411 2.547z" fill="#0080ff" data-fill-palette-color="secondary"></path><path d="M140.023 269.025l-0.027-0.474c-0.12-2.17 0.189-4.134 0.928-5.893 0.732-1.759 1.829-3.18 3.292-4.265 1.463-1.085 3.239-1.685 5.328-1.8v0c2.109-0.117 3.961 0.283 5.554 1.199 1.587 0.916 2.837 2.208 3.752 3.876 0.921 1.667 1.441 3.586 1.561 5.755v0l0.026 0.474c0.119 2.156-0.187 4.117-0.918 5.882-0.725 1.765-1.822 3.187-3.292 4.265-1.47 1.078-3.256 1.676-5.359 1.792v0c-2.103 0.116-3.944-0.281-5.523-1.19-1.58-0.91-2.83-2.202-3.752-3.876-0.928-1.674-1.452-3.589-1.57-5.745zM143.876 268.337l0.026 0.473c0.082 1.478 0.392 2.832 0.932 4.062 0.54 1.23 1.294 2.203 2.263 2.917 0.976 0.707 2.176 1.022 3.6 0.944v0c1.411-0.078 2.559-0.522 3.444-1.333 0.891-0.817 1.538-1.867 1.938-3.149 0.401-1.282 0.56-2.662 0.479-4.14v0l-0.027-0.474c-0.082-1.478-0.392-2.832-0.931-4.062-0.54-1.23-1.301-2.202-2.284-2.916-0.976-0.721-2.177-1.042-3.601-0.963v0c-1.397 0.077-2.545 0.528-3.442 1.353-0.898 0.818-1.541 1.867-1.929 3.148-0.394 1.282-0.55 2.662-0.468 4.14z" fill="#0080ff" data-fill-palette-color="secondary"></path><path d="M181.615 273.975l-3.732 1.082-6.917-23.853c-0.671-2.313-0.552-4.271 0.357-5.872 0.913-1.61 2.471-2.734 4.675-3.373v0c0.426-0.124 0.861-0.218 1.305-0.284 0.441-0.072 0.881-0.115 1.317-0.13v0l0.669 3.032c-0.295 0.022-0.624 0.072-0.986 0.15-0.356 0.075-0.709 0.164-1.058 0.264v0c-1.17 0.339-1.983 0.953-2.439 1.843-0.45 0.887-0.486 1.983-0.108 3.288v0zM179.936 251.083l0.815 2.811-11.698 3.392-0.816-2.811z" fill="#0080ff" data-fill-palette-color="secondary"></path><path d="M208.151 236.58l12.16 18.876-3.258 2.098-12.16-18.876zM201.412 233.815v0c-0.332-0.515-0.451-1.054-0.358-1.618 0.084-0.566 0.439-1.051 1.067-1.456v0c0.628-0.404 1.225-0.533 1.792-0.386 0.558 0.145 1.002 0.475 1.333 0.989v0c0.321 0.498 0.432 1.03 0.334 1.598-0.104 0.571-0.47 1.059-1.098 1.464v0c-0.628 0.404-1.215 0.53-1.761 0.378-0.552-0.149-0.988-0.472-1.309-0.969z" fill="#0080ff" data-fill-palette-color="secondary"></path><path d="M222.925 228.849l12.783 13.95-2.858 2.618-15.169-16.555 2.783-2.549zM225.613 221.431l2.393 2.611c-0.289 0.173-0.544 0.348-0.766 0.524-0.222 0.176-0.467 0.387-0.735 0.632v0c-0.868 0.795-1.436 1.644-1.704 2.547-0.268 0.903-0.279 1.816-0.034 2.741 0.25 0.93 0.703 1.833 1.36 2.709v0l-0.388 1.205c-1.223-1.334-2.164-2.721-2.825-4.159-0.656-1.433-0.91-2.83-0.76-4.19 0.145-1.365 0.816-2.595 2.011-3.691v0c0.193-0.177 0.445-0.366 0.753-0.567 0.314-0.205 0.545-0.326 0.695-0.362z" fill="#0080ff" data-fill-palette-color="secondary"></path><path d="M239.786 222.371l-0.386-0.276c-1.768-1.263-3.107-2.733-4.018-4.409-0.915-1.671-1.338-3.416-1.269-5.236 0.068-1.82 0.711-3.581 1.927-5.283v0c1.228-1.719 2.698-2.913 4.409-3.584 1.707-0.665 3.498-0.833 5.371-0.504 1.877 0.324 3.699 1.118 5.467 2.382v0l0.386 0.276c1.757 1.256 3.096 2.721 4.016 4.395 0.924 1.669 1.347 3.414 1.269 5.236-0.078 1.821-0.729 3.589-1.953 5.302v0c-1.224 1.713-2.686 2.902-4.383 3.565-1.698 0.664-3.488 0.831-5.371 0.503-1.886-0.323-3.708-1.112-5.465-2.367zM241.659 218.934l0.386 0.276c1.204 0.861 2.455 1.465 3.752 1.813 1.297 0.348 2.528 0.368 3.692 0.059 1.162-0.319 2.158-1.058 2.987-2.219v0c0.821-1.149 1.193-2.323 1.114-3.521-0.08-1.207-0.495-2.367-1.245-3.482-0.75-1.115-1.727-2.102-2.931-2.962v0l-0.386-0.276c-1.204-0.861-2.455-1.465-3.752-1.813-1.297-0.348-2.532-0.362-3.703-0.042-1.173 0.311-2.174 1.047-3.004 2.207v0c-0.814 1.139-1.179 2.316-1.098 3.532 0.076 1.212 0.493 2.37 1.251 3.474 0.754 1.109 1.733 2.094 2.937 2.954z" fill="#0080ff" data-fill-palette-color="secondary"></path><path d="M252.485 188.05l16.417 6.51-1.429 3.602-20.872-8.277 1.354-3.414zM257.32 190.944l-0.652 1.479c-1.891-0.779-3.447-1.819-4.668-3.122-1.214-1.299-2.006-2.753-2.374-4.361-0.366-1.614-0.215-3.263 0.452-4.945v0c0.546-1.376 1.27-2.464 2.173-3.263 0.901-0.793 2.013-1.243 3.336-1.348 1.325-0.111 2.901 0.195 4.727 0.919v0l13.677 5.424-1.432 3.612-13.715-5.439c-1.094-0.434-2.038-0.627-2.831-0.58-0.793 0.047-1.463 0.321-2.009 0.821-0.546 0.5-0.997 1.2-1.354 2.101v0c-0.352 0.888-0.486 1.765-0.403 2.63 0.09 0.868 0.359 1.695 0.808 2.481 0.446 0.792 1.032 1.495 1.758 2.109 0.733 0.616 1.568 1.11 2.506 1.482z" fill="#0080ff" data-fill-palette-color="secondary"></path></g></svg></g></svg></g></svg></g></svg></g><defs></defs></svg><rect width="280" height="280" fill="none" stroke="none" visibility="hidden"></rect></g></svg></g></svg>