<svg width="115" height="30" viewBox="0 0 115 30" fill="none" xmlns="http://www.w3.org/2000/svg">
<g clip-path="url(#clip0_462_5685)">
<path d="M0 25.4648C0 27.674 1.79086 29.4648 4 29.4648H111C113.209 29.4648 115 27.674 115 25.4648V4.46484C115 2.25571 113.209 0.464844 111 0.464844H4C1.79086 0.464844 0 2.2557 0 4.46484V25.4648Z" fill="#D2232A"/>
<path d="M106.149 19.4335V11.6713C106.149 9.87447 104.639 8.41995 102.718 8.41995H93.1112V12.2993H102.032V18.8056H93.1112V22.6867H102.718C104.639 22.6867 106.149 21.2304 106.149 19.4335ZM91.327 14.5827V8.41869H81.7204V5.56641H77.603V12.2998H87.2096V14.2687L83.1742 16.894C82.5974 17.2647 81.7204 17.5503 81.7204 19.6043V22.6872H85.8378V19.9467L89.4603 17.5786C90.4483 16.9507 91.327 16.6651 91.327 14.5827ZM76.1753 19.4335V11.6713C76.1753 9.87447 74.6652 8.41995 72.7439 8.41995H63.1372V12.2993H72.0579V18.8056H63.1372V22.6867H72.7439C74.6652 22.6867 76.1753 21.2304 76.1753 19.4335ZM61.3531 14.5827V8.41869H51.7464V5.56641H47.629V12.2998H57.2357V14.2687L53.2002 16.894C52.6235 17.2647 51.7464 17.5503 51.7464 19.6043V22.6872H55.8638V19.9467L59.4863 17.5786C60.4743 16.9507 61.3531 16.6651 61.3531 14.5827ZM45.927 16.9795V8.41914H39.7518V12.0998H41.8096V16.9795H45.927ZM24.4629 19.4313V8.41741H34.7564C36.6779 8.41741 38.1871 9.87248 38.1871 11.6697V19.4313C38.1871 21.2293 36.6779 22.6843 34.7564 22.6843H27.8943C25.9728 22.6843 24.4629 21.2293 24.4629 19.4313ZM28.5803 18.8039H34.0704V12.2978H28.5803V18.8039ZM22.5736 22.6865V11.6729C22.5736 9.87428 21.0635 8.41976 19.1421 8.41976H15.7107V12.3008H18.4562V18.8054H12.9669V8.41976H8.84955V19.4333C8.84955 21.232 10.3579 22.6865 12.281 22.6865H22.5736Z" fill="white"/>
</g>
<defs>
<clipPath id="clip0_462_5685">
<rect width="115" height="29" fill="white" transform="translate(0 0.464844)"/>
</clipPath>
</defs>
</svg>
