<svg width="18" height="18" viewBox="0 0 18 18" fill="none" xmlns="http://www.w3.org/2000/svg">
<path fill-rule="evenodd" clip-rule="evenodd" d="M4.25 4.5C3.14543 4.5 2.25 5.39543 2.25 6.5V12.25C2.25 13.3546 3.14543 14.25 4.25 14.25H13.75C14.8546 14.25 15.75 13.3546 15.75 12.25V6.5C15.75 5.39543 14.8546 4.5 13.75 4.5H4.25ZM14.3703 6.10832C14.223 5.83479 13.8818 5.73245 13.6083 5.87973L9 8.36114L4.39168 5.87973C4.11815 5.73245 3.77702 5.83479 3.62973 6.10832C3.48245 6.38185 3.58479 6.72298 3.85832 6.87026L8.73332 9.49527C8.8998 9.58491 9.10019 9.58491 9.26668 9.49527L14.1417 6.87026C14.4152 6.72298 14.5175 6.38185 14.3703 6.10832Z" fill="white"/>
</svg>
