<svg width="18" height="18" viewBox="0 0 18 18" fill="none" xmlns="http://www.w3.org/2000/svg">
<g clip-path="url(#clip0_670_655)">
<path fill-rule="evenodd" clip-rule="evenodd" d="M15.26 2.683C13.5964 1.01742 11.3839 0.0998648 9.02684 0.098877C4.16998 0.098877 0.217227 4.05143 0.215252 8.90968C0.214659 10.4626 0.620287 11.9785 1.39143 13.3149L0.141357 17.8809L4.8125 16.6555C6.09952 17.3575 7.54856 17.7276 9.02328 17.728H9.02684C9.02664 17.728 9.02704 17.728 9.02684 17.728C13.8831 17.728 17.8363 13.775 17.8382 8.91659C17.8392 6.56225 16.9236 4.34858 15.26 2.683ZM5.4485 9.23034C5.33845 9.08335 4.54952 8.03658 4.54952 6.95286C4.54952 5.86915 5.11835 5.33647 5.32008 5.11618C5.5218 4.89588 5.76048 4.84075 5.90728 4.84075C6.05408 4.84075 6.20108 4.84213 6.32931 4.84846C6.46445 4.85537 6.64602 4.79709 6.82464 5.22642C7.00818 5.66722 7.44839 6.75113 7.50351 6.86119C7.55864 6.97143 7.59519 7.09986 7.52189 7.24686C7.44859 7.39366 7.41184 7.48553 7.30179 7.61416C7.19174 7.74278 7.07062 7.90124 6.97144 7.99983C6.86119 8.10968 6.74639 8.22882 6.87482 8.44912C7.00324 8.66962 7.44503 9.39058 8.09961 9.97442C8.9405 10.7246 9.65 10.957 9.8701 11.0672C10.0902 11.1775 10.2186 11.1591 10.3471 11.0121C10.4755 10.8651 10.8975 10.3692 11.0443 10.1489C11.1911 9.92859 11.3379 9.96533 11.5396 10.0386C11.7416 10.1121 12.8239 10.6448 13.044 10.7549C13.2641 10.8651 13.4109 10.9202 13.466 11.0121C13.5212 11.104 13.5212 11.5448 13.3376 12.0591C13.154 12.5734 12.2744 13.0428 11.8514 13.1058C11.4721 13.1625 10.9922 13.1863 10.4646 13.0185C10.1449 12.9172 9.73476 12.7816 9.2094 12.5548C7.00107 11.6011 5.55875 9.37734 5.4485 9.23034Z" fill="white"/>
</g>
<defs>
<clipPath id="clip0_670_655">
<rect width="18" height="18" fill="white"/>
</clipPath>
</defs>
</svg>
