<svg width="115" height="29" viewBox="0 0 115 29" fill="none" xmlns="http://www.w3.org/2000/svg">
<g clip-path="url(#clip0_543_8628)">
<path d="M0 24.9995C0 27.2087 1.79086 28.9995 4 28.9995H111C113.209 28.9995 115 27.2087 115 24.9995V3.99951C115 1.79037 113.209 -0.000488281 111 -0.000488281H4C1.79086 -0.000488281 0 1.79037 0 3.99951V24.9995Z" fill="#D2232A"/>
<path d="M106.149 18.9692V11.207C106.149 9.41011 104.639 7.95559 102.718 7.95559H93.1111V11.8349H102.032V18.3413H93.1111V22.2223H102.718C104.639 22.2223 106.149 20.766 106.149 18.9692ZM91.327 14.1183V7.95434H81.7203V5.10205H77.6029V11.8354H87.2096V13.8044L83.1741 16.4296C82.5974 16.8003 81.7203 17.0859 81.7203 19.14V22.2229H85.8377V19.4823L89.4602 17.1143C90.4482 16.4864 91.327 16.2008 91.327 14.1183ZM76.1752 18.9692V11.207C76.1752 9.41011 74.6651 7.95559 72.7438 7.95559H63.1372V11.8349H72.0579V18.3413H63.1372V22.2223H72.7438C74.6651 22.2223 76.1752 20.766 76.1752 18.9692ZM61.353 14.1183V7.95434H51.7464V5.10205H47.629V11.8354H57.2356V13.8044L53.2002 16.4296C52.6234 16.8003 51.7464 17.0859 51.7464 19.14V22.2229H55.8637V19.4823L59.4863 17.1143C60.4742 16.4864 61.353 16.2008 61.353 14.1183ZM45.9269 16.5152V7.95478H39.7517V11.6354H41.8095V16.5152H45.9269ZM24.4629 18.9669V7.95305H34.7563C36.6779 7.95305 38.187 9.40812 38.187 11.2053V18.9669C38.187 20.7649 36.6779 22.2199 34.7563 22.2199H27.8943C25.9728 22.2199 24.4629 20.7649 24.4629 18.9669ZM28.5803 18.3395H34.0704V11.8335H28.5803V18.3395ZM22.5735 22.2222V11.2086C22.5735 9.40992 21.0634 7.9554 19.1421 7.9554H15.7106V11.8365H18.4561V18.3411H12.9669V7.9554H8.84949V18.969C8.84949 20.7676 10.3579 22.2222 12.2809 22.2222H22.5735Z" fill="white"/>
</g>
<defs>
<clipPath id="clip0_543_8628">
<rect width="115" height="29" fill="white" transform="translate(0 -0.000488281)"/>
</clipPath>
</defs>
</svg>
