<svg width="512" height="512" viewBox="0 0 512 512" fill="none" xmlns="http://www.w3.org/2000/svg">
<path fill-rule="evenodd" clip-rule="evenodd" d="M144.746 94.9261C133.537 99.2854 124.057 105.098 114.577 114.577C105.098 123.988 99.2854 133.537 94.9261 144.677C90.7052 155.471 87.8683 167.857 87.0379 185.986C86.2076 204.115 86 209.928 86 256.15C86 302.372 86.2076 308.184 87.0379 326.313C87.8683 344.442 90.7744 356.828 94.9261 367.622C99.2854 378.832 105.098 388.311 114.577 397.791C124.057 407.271 133.537 413.083 144.746 417.442C155.541 421.663 167.926 424.5 186.055 425.33C204.184 426.161 209.997 426.368 256.219 426.368C302.441 426.368 308.253 426.161 326.382 425.33C344.511 424.5 356.897 421.594 367.691 417.442C378.901 413.083 388.38 407.271 397.86 397.791C407.34 388.311 413.152 378.832 417.511 367.622C421.732 356.828 424.569 344.442 425.4 326.313C426.23 308.184 426.438 302.372 426.438 256.15C426.438 209.928 426.23 204.115 425.4 185.986C424.569 167.857 421.663 155.471 417.511 144.677C413.152 133.537 407.34 123.988 397.929 114.577C388.45 105.098 378.97 99.2854 367.76 94.9261C356.966 90.7052 344.58 87.8683 326.451 87.0379C308.322 86.2076 302.51 86 256.288 86C210.066 86 204.254 86.2076 186.125 87.0379C167.926 87.7991 155.541 90.7052 144.746 94.9261ZM324.998 117.622C341.605 118.383 350.6 121.151 356.62 123.503C364.578 126.617 370.251 130.285 376.202 136.235C382.153 142.186 385.82 147.86 388.934 155.817C391.287 161.837 394.054 170.833 394.816 187.439C395.646 205.361 395.784 210.758 395.784 256.219C395.784 301.68 395.577 307.077 394.816 324.998C394.054 341.605 391.287 350.6 388.934 356.62C385.82 364.578 382.153 370.251 376.202 376.202C370.251 382.153 364.578 385.82 356.62 388.934C350.6 391.287 341.605 394.054 324.998 394.816C307.077 395.646 301.68 395.784 256.219 395.784C210.758 395.784 205.361 395.577 187.439 394.816C170.833 394.054 161.837 391.287 155.817 388.934C147.86 385.82 142.186 382.153 136.235 376.202C130.285 370.251 126.617 364.578 123.503 356.62C121.151 350.6 118.383 341.605 117.622 324.998C116.792 307.077 116.653 301.68 116.653 256.219C116.653 210.758 116.861 205.361 117.622 187.439C118.383 170.833 121.151 161.837 123.503 155.817C126.617 147.86 130.285 142.186 136.235 136.235C142.186 130.285 147.86 126.617 155.817 123.503C161.837 121.151 170.833 118.383 187.439 117.622C205.361 116.792 210.758 116.653 256.219 116.653C301.68 116.653 307.077 116.792 324.998 117.622ZM168.826 256.219C168.826 304.517 207.991 343.612 256.219 343.612C304.448 343.612 343.612 304.448 343.612 256.219C343.612 207.99 304.517 168.826 256.219 168.826C207.921 168.826 168.826 207.921 168.826 256.219ZM312.959 256.219C312.959 287.564 287.564 312.958 256.219 312.958C224.874 312.958 199.48 287.564 199.48 256.219C199.48 224.874 224.874 199.479 256.219 199.479C287.564 199.479 312.959 224.874 312.959 256.219ZM367.553 165.366C367.553 176.64 358.414 185.779 347.14 185.779C335.867 185.779 326.728 176.64 326.728 165.366C326.728 154.093 335.867 144.954 347.14 144.954C358.414 144.954 367.553 154.093 367.553 165.366Z" fill="url(#paint0_radial_608_5087)"/>
<defs>
<radialGradient id="paint0_radial_608_5087" cx="0" cy="0" r="1" gradientUnits="userSpaceOnUse" gradientTransform="translate(160.303 426.425) rotate(-51.9272) scale(435.627 370.354)">
<stop stop-color="#FED576"/>
<stop offset="0.2634" stop-color="#F47133"/>
<stop offset="0.6091" stop-color="#BC3081"/>
<stop offset="1" stop-color="#4C63D2"/>
</radialGradient>
</defs>
</svg>
