<svg width="830" height="120" viewBox="0 0 830 120" fill="none" xmlns="http://www.w3.org/2000/svg">
<path d="M34.2218 1.80042H0V118.288H34.2218V1.80042Z" fill="black"/>
<path d="M95.9551 46.1454C87.206 43.6582 80.2569 40.9963 80.2569 35.5963C80.2569 30.6218 85.7442 28.3091 91.3187 28.3091C101.268 28.3091 109.591 34.1454 114.217 41.7709L137.464 25.6473C127.613 10.3745 113.715 0.0872803 91.6678 0.0872803C69.6205 0.0872803 47.1587 13.7236 47.1587 35.6836C47.1587 59.1054 66.8824 66.6436 86.1042 72.3927C101.453 77.0291 107.715 78.5672 107.715 84.0545C107.715 88.429 102.053 91.6909 94.5914 91.6909C83.8678 91.6909 74.2678 86.1163 67.406 75.9927L42.9587 93.0654C53.2569 110.051 71.2678 120 94.3405 120C117.413 120 140.835 108.076 140.835 84.1418C140.835 61.9309 122.224 53.52 95.9769 46.1454H95.9551Z" fill="black"/>
<path d="M249.305 40.3967C249.305 17.5749 230.869 1.80042 208.309 1.80042H149.552V118.288H183.611V79.2549H195.022L215.52 118.364H251.978L228.392 74.7931C240.829 68.444 249.327 56.2695 249.327 40.3967H249.305ZM202.56 52.6586H183.6V29.5095H202.56C210.109 29.5095 214.483 34.3095 214.483 40.4077C214.483 46.844 209.847 52.6695 202.56 52.6695V52.6586Z" fill="black"/>
<path d="M301.1 1.80042L256.329 118.288H292.875L300.424 98.8149H342.544L350.093 118.288H386.638L341.933 1.80042H301.1ZM308.137 72.9931L321.522 34.0477L334.82 72.9931H308.147H308.137Z" fill="black"/>
<path d="M425.125 72.7422H469.809V45.3713H425.125V29.2477H476.071V1.80042H390.98V118.288H476.933V90.9276H425.125V72.7422Z" fill="black"/>
<path d="M519.885 1.80042H485.663V118.288H575.816V91.004H519.885V1.80042Z" fill="black"/>
<path d="M634.983 84.1418C651.543 72.3927 670.154 58.7563 670.154 38.7709C670.154 15.5236 651.968 0 625.383 0C598.798 0 584.55 17.3236 580.176 31.7345L605.31 42.9709C608.572 35.0836 615.172 28.2982 623.234 28.2982C630.783 28.2982 635.419 32.8473 635.419 39.6218C635.419 47.6836 630.183 52.92 618.259 62.0945C595.438 79.5927 584.201 86.3672 584.201 106.102V118.287H670.83V90.4145H627.085C627.347 90.0763 632.408 85.9527 634.972 84.1527L634.983 84.1418Z" fill="black"/>
<path d="M679.559 30.1095H703.494V118.288H736.777V1.80042H679.559V30.1095Z" fill="black"/>
<path d="M805.975 83.1164C803.062 88.3528 798.513 92.5528 791.477 92.5528C783.327 92.5528 776.64 86.8037 776.64 77.1165C776.64 68.1928 783.327 61.8437 791.138 61.8437C796.713 61.8437 801.775 64.7565 805.211 71.9674L829.058 55.6692C821.935 41.8583 807.96 34.3092 790.549 34.3092C763.964 34.3092 745.517 52.7456 745.517 77.1055C745.517 101.466 764.215 119.989 790.637 119.989C808.56 119.989 822.633 112.015 829.495 99.5783L805.997 83.1055L805.975 83.1164Z" fill="black"/>
</svg>
