<svg width="133" height="27" viewBox="0 0 133 27" fill="none" xmlns="http://www.w3.org/2000/svg">
<g clip-path="url(#clip0_543_8625)">
<path d="M128.093 13.5972C128.127 13.2932 128.263 13.0868 128.451 12.8669L128.514 12.793L127.367 12.8451C127.096 12.847 127.031 12.9197 126.975 12.9936C126.951 13.0257 126.932 13.0489 126.897 13.0675C126.863 13.0855 126.806 13.1029 126.693 13.108C126.461 13.1183 126.318 13.0997 126.195 13.0643C126.132 13.0463 126.073 13.0232 126.012 12.9974C125.948 12.9704 125.88 12.9402 125.801 12.9094L125.694 12.8669L125.743 13.3234L124.824 13.3806C124.816 13.6577 125.27 13.8351 125.322 14.1096L126.136 14.0588L126.103 13.6069C126.801 13.3054 127.505 13.2912 127.982 13.6255L128.082 13.6962L128.093 13.5972ZM122.32 12.0917C121.987 11.6378 121.09 10.7777 120.723 11.5549C120.904 11.7149 121.157 11.7953 121.275 12.0338L122.32 12.0917ZM124.082 12.235C124.644 11.3042 124.599 11.0952 125.73 11.5902C125.614 11.443 125.502 11.2868 125.429 11.1068C124.859 11.0316 124.288 10.9532 123.716 10.8741C123.744 10.9917 123.775 11.1479 123.703 11.2463C123.191 10.8869 122.489 10.7275 121.924 10.8908C122.848 11.1428 123.257 11.7625 124.082 12.235ZM127.472 19.8882C126.519 20.7304 126.997 21.5815 125.271 20.4899C125.338 20.6693 125.396 20.8712 125.395 21.0627L127.255 21.4697C127.278 21.3327 127.328 21.1379 127.445 21.0486C127.851 21.5102 128.788 21.7127 129.354 21.5867C127.18 20.8049 129.162 21.235 127.472 19.8882ZM28.4653 2.12544L26.9447 2.20773L27.1591 2.90137L28.5242 2.8943L28.4653 2.12544ZM30.2684 0.866083L29.432 0.91944L29.4909 1.68701L30.4696 1.8053L30.2684 0.866083ZM33.9798 1.38037L33.0866 1.43758C33.078 1.73587 32.9661 1.85351 32.6459 1.90687L32.7081 2.7233L33.602 2.66608C33.6093 2.36587 33.7218 2.24823 34.0427 2.19937L33.9798 1.38037ZM118.604 7.7138L120.507 7.59101C119.778 7.32165 118.78 6.74823 118.604 7.7138ZM94.2315 4.8923L93.0921 4.96558C92.5561 4.96815 92.8797 5.35258 92.3457 5.38665C91.8117 5.42137 91.6608 5.25744 91.3114 5.05623L91.3981 6.22301C92.2636 5.57373 93.2012 5.46444 93.8246 6.09765C93.8629 5.59365 94.0204 5.24973 94.2315 4.8923ZM52.7249 2.62944L51.4697 2.70723C51.4611 2.98494 51.915 3.16237 51.9686 3.43687L52.7825 3.38608L52.7249 2.62944ZM38.8737 2.48094C38.742 2.40444 38.5376 2.3138 38.3311 2.34723L38.2054 2.36715L38.2008 2.49123C38.1816 2.9708 38.7453 3.00037 39.053 2.90844L39.3137 2.83001C39.3137 2.83001 39.0868 2.62751 39.0438 2.59344C39.0021 2.56258 38.9425 2.5208 38.8737 2.48094ZM19.7846 1.43115C20.1485 1.47937 20.6878 1.43308 21.2072 1.05123L21.5347 0.810797L21.1265 0.777369C20.5733 0.733012 19.954 0.77994 19.6754 1.19651L19.5398 1.39901L19.7846 1.43115ZM66.148 3.38415C66.3127 3.3173 66.4921 3.19323 66.4537 2.99523L66.4424 2.93608L66.3816 2.93415C66.2221 2.92773 66.0024 2.96051 65.8264 3.03123C65.6623 3.09808 65.483 3.2228 65.5214 3.42015L65.5319 3.47865L65.5928 3.48123C65.7523 3.48765 65.972 3.45487 66.148 3.38415ZM61.3156 3.27551C61.4811 3.20865 61.6604 3.08458 61.6227 2.88658L61.6108 2.82808L61.5499 2.82551C61.3904 2.81908 61.1701 2.85251 60.9941 2.92323C60.8286 2.99008 60.6493 3.11544 60.6877 3.31215L60.699 3.3713L60.7598 3.37387C60.9193 3.37965 61.139 3.34687 61.3156 3.27551ZM64.4375 3.1868C64.5844 3.04665 64.7134 2.87694 64.679 2.69823L64.6665 2.6333L63.7308 2.69115L63.8049 3.6818L63.9181 3.59823C64.0028 3.53587 64.0941 3.46965 64.1828 3.40151C64.2741 3.33144 64.3614 3.25944 64.4375 3.1868ZM105.802 3.76087C105.928 3.58087 105.668 3.36615 106.194 3.33144C106.722 3.90487 106.352 4.72387 106.715 5.4593C108.238 4.42108 107.899 5.61037 109.122 5.78973C109.834 5.89451 110.493 5.44773 111.19 5.41108C110.703 5.15265 110.008 5.12437 109.28 4.86208C108.809 4.69301 107.942 4.56187 108.093 4.37673C108.638 4.35744 109.223 4.2398 109.692 4.38315C110.24 4.5503 110.747 5.06715 111.279 5.03373L113.807 4.84601C114.338 4.81194 113.36 5.42137 114.51 5.31337C115.402 5.2298 114.336 4.83894 114.868 4.80551C115.399 4.77208 116.844 5.66565 117.731 5.76015C118.993 5.90608 120.503 6.06037 121.85 6.0038C121.916 6.47373 122.121 6.79258 122.384 7.11401L121.753 7.15451C121.227 7.22394 121.408 6.80865 121.252 6.80415C121.105 7.17637 120.697 7.25801 120.734 7.76008C120.771 8.26215 120.954 8.27951 121.104 8.44215C121.229 8.26215 120.968 8.04744 121.498 8.01337C122.027 7.9793 122.226 8.58165 122.728 8.86387C122.207 8.97508 121.842 8.76808 121.665 8.94808C121.686 9.11008 121.852 9.1403 121.852 9.1403L121.99 9.14673L121.809 9.16665C121.663 9.14287 121.453 9.04065 121.343 8.93973L120.998 8.65558C120.904 8.53794 120.81 8.49487 120.787 8.56108C120.763 8.6273 120.65 8.7353 120.616 8.67165C120.583 8.60737 120.505 8.50001 120.472 8.56623C120.438 8.63308 120.254 8.69158 120.165 8.57137L119.961 8.2088C119.935 8.05901 119.801 7.9793 119.661 8.03008L117.318 8.6678C117.17 8.66715 117.044 8.79058 117.039 8.94165L117.025 9.37751C117.02 9.52858 117.1 9.69508 117.204 9.7478C117.308 9.79987 117.616 9.6938 117.622 9.54337L117.705 9.08051C117.729 8.93073 117.829 8.90051 117.929 9.01365L118.474 9.66615C118.59 9.75937 118.731 9.72015 118.784 9.58001C118.784 9.58001 118.885 9.31708 119.27 9.31451C119.635 9.31258 119.616 9.82558 119.982 9.82558C120.597 9.82623 121.638 9.9503 121.638 9.9503C121.785 9.96765 121.957 9.86994 122.021 9.7343L122.222 9.39037C122.248 9.24187 122.371 9.18915 122.493 9.27337L123.682 9.4148C123.808 9.33637 123.957 9.34408 124.014 9.43087C124.069 9.51765 124.237 9.70923 124.366 9.63723L124.833 9.46108C124.882 9.41287 124.95 9.37108 125.025 9.34023L126.361 9.42894C126.345 9.43987 126.322 9.45144 126.293 9.46237L125.825 9.58194C125.685 9.62694 125.633 9.69058 125.711 9.72273C125.79 9.75487 126.149 9.77865 126.179 9.77994C126.209 9.78058 126.231 9.80951 126.228 9.84358C126.226 9.8783 126.395 10.0075 126.539 9.97408L127.186 9.95223C127.305 10.0403 127.484 10.0204 127.583 9.90787L127.636 9.8468C127.734 9.7343 127.738 9.63787 127.646 9.63273C127.554 9.62694 127.457 9.52665 127.603 9.51123C127.936 9.52344 128.231 9.53823 128.526 9.55237C128.544 9.57808 128.555 9.60765 128.559 9.63915C128.576 9.76387 128.572 10.0577 128.708 10.0654C128.655 10.1174 128.604 10.1798 128.563 10.2602C128.641 10.3142 128.749 10.3386 128.865 10.3527L128.397 10.3784C128.254 10.3431 128.1 10.4209 128.055 10.5507C128.01 10.6806 127.983 11.0361 127.841 11.0335C127.766 11.0316 127.622 11.1094 127.512 11.1968C127.286 11.2315 127.058 11.1923 126.831 11.0515C127.102 12.1347 126.335 11.6481 125.986 12.2132L125.622 11.8049L125.901 12.5841C126.285 12.5037 126.651 12.0557 127.031 12.0531C127.836 12.0479 128.599 12.6606 129.406 12.7184C129.495 12.7165 129.602 12.7062 129.721 12.6876C129.702 12.8637 129.709 13.0772 129.725 13.2932C129.762 13.7939 130.402 13.6004 130.439 14.1012C130.476 14.6014 129.399 15.2757 129.437 15.7759C129.465 16.1513 130.266 16.2779 131.262 16.5216C131.396 17.3226 132.538 18.2766 132.575 18.7774C132.629 19.5186 132.667 19.867 132.032 20.5054C132.557 20.7837 132.945 21.0068 132.953 21.0878C133.021 21.8522 133.108 21.9576 132.476 22.5895C132.033 22.7444 131.52 22.9547 131.454 22.9521C130.837 22.9238 129.705 22.0919 129.001 22.0154C128.358 21.9447 125.927 22.6647 125.692 23.2838C127.221 23.1848 129.14 22.0007 130.45 23.4368C130.245 23.5615 130.005 23.6676 130.039 23.9627C130.441 23.8322 130.866 23.7627 131.217 24.0854C131.404 22.6384 132.101 23.2722 132.633 22.9502C132.677 23.0074 132.711 23.1032 132.725 23.2658C132.77 23.7756 132.316 23.4047 132.361 23.9144C132.406 24.4242 132.502 24.313 132.808 24.3413C132.233 25.3731 131.645 25.6219 130.628 25.7138C130.386 25.7357 129.933 25.6881 129.416 25.6238L129.586 25.0877C129.666 24.9417 129.746 24.7952 129.767 24.7624C129.787 24.7289 129.665 24.7103 129.496 24.7219L128.776 24.7682C128.607 24.7791 128.337 24.8292 128.176 24.8794C128.176 24.8794 128.078 24.9102 128.013 25.0311C127.985 25.0838 127.964 25.1217 127.923 25.1526C127.884 25.1822 127.816 25.2104 127.685 25.2194L127.584 25.2233C127.556 25.1924 127.478 25.1751 127.292 25.1918C127.202 25.1828 127.153 25.1661 127.106 25.1474C127.032 25.1172 126.964 25.0806 126.893 25.0382L126.817 24.9944L126.585 24.8588C126.55 24.8395 126.533 24.9584 126.545 25.1237L126.556 25.258L125.633 25.3409C125.04 25.1834 124.433 25.0799 123.848 24.8839C123.896 24.439 123.693 23.9935 123.722 23.5429C123.759 22.9919 124.233 23.6721 124.181 23.1205L124.121 22.7219C124.653 22.8119 125.252 22.8441 125.734 22.5889C125.606 22.3934 125.387 22.2141 125.154 22.1819C124.977 23.0755 123.857 22.2539 123.384 22.2604C123.364 22.3928 123.325 22.5818 123.222 22.6769C123.105 22.1974 122.69 21.6882 122.183 21.6432C121.642 21.5944 122.484 22.1395 121.942 22.0868C121.411 22.0354 122.171 21.6419 121.64 21.5905C121.107 21.5384 121.821 22.0547 121.289 22.0232C120.683 21.9878 120.007 21.8727 119.442 22.1337C119.414 22.3832 119.633 22.7393 119.638 23.0562L118.73 22.7933C118.94 22.693 119.181 22.6056 119.165 22.3189C118.201 22.1678 118.007 22.4899 117.108 21.6291C117.036 21.9312 116.992 22.1845 116.785 22.4243C117.166 22.7155 117.719 22.6152 117.862 22.7618C117.663 23.0864 118.05 23.4278 117.83 23.7434C118.269 23.6367 118.705 23.6091 119.124 23.8367C118.914 24.16 118.569 24.0977 118.235 24.1369C118.361 24.3516 118.451 24.6312 118.358 24.8569C118.047 24.8498 117.737 24.8453 117.427 24.8447L116.659 24.6942C116.859 24.5991 117.1 24.6351 117.315 24.6119L116.814 23.9292C116.389 24.2622 115.576 24.6807 115.283 23.8984C115.194 24.0649 115.478 24.2429 115.194 24.2365L115.046 24.2269C114.68 24.1902 114.533 23.9819 114.282 24.3149C114.671 24.4056 115.016 24.6023 115.379 24.7611L115.333 24.8312L113.501 24.7823C113.115 24.5245 112.852 24.0167 112.347 24.0012C112.318 24.1677 112.238 24.3278 112.138 24.4679C112.099 24.4654 112.052 24.4641 111.993 24.466L111.854 24.4782C111.171 23.7254 110.204 23.4259 109.754 24.6544C109.659 24.2558 109.673 23.7589 109.36 23.4477C107.991 25.2182 107.571 23.5011 106.737 23.4278C106.243 23.3854 106.209 24.0797 105.714 24.0334C105.194 23.9845 105.271 23.5654 104.984 23.2594C104.626 23.5564 103.868 24.0064 103.633 24.4474L103.574 24.4448C103.503 24.0861 103.518 23.7164 103.523 23.3526C103.649 23.404 103.812 23.4934 104.029 23.6303C103.985 23.5152 103.949 23.3854 103.949 23.2619L103.524 23.1539C103.484 23.1456 103.444 23.143 103.407 23.1437L102.753 23.0009C102.738 23.089 102.706 23.2144 102.63 23.2716C102.37 22.9746 101.767 22.8441 101.404 22.9257C102.801 23.4278 101.527 23.152 102.614 24.0173L102.664 23.9704L102.643 24.3779C102.282 24.3072 101.947 24.151 101.767 24.1664C99.4337 24.3741 99.3093 24.1774 98.7786 24.2243C98.2473 24.2719 99.134 24.6074 98.6026 24.6544C98.072 24.7019 97.9469 24.5052 97.7259 24.4217C97.929 24.3002 98.0303 24.2095 98.0303 24.2095L95.5688 24.3021C95.1479 24.34 95.1109 23.9279 94.5789 23.9755C94.0469 24.0224 94.1382 24.1915 93.8748 24.4532C93.3997 24.1587 92.6368 24.1478 92.5567 24.1542C92.0241 24.2018 91.7515 24.2147 91.3108 24.4718C90.1912 24.3619 88.0235 23.9324 87.4902 23.9794C86.9562 24.0269 85.8697 23.9144 82.233 24.2365C82.0187 24.2552 81.8479 23.854 81.312 23.899L77.4483 24.2397C76.737 23.8701 75.9026 23.5442 75.3647 23.5917C74.8274 23.6387 75.2945 24.0147 74.7566 24.0623C74.2193 24.1099 74.3371 23.8598 74.1425 23.6959L71.4918 23.9286C71.1173 23.9639 71.1087 24.1652 71.1385 24.2841C71.0432 24.0546 70.9366 23.98 70.9366 23.98C70.8301 24.169 70.7758 24.4133 70.4549 24.3767C70.6653 24.0353 70.3074 24.0366 70.0923 24.0552C67.5051 24.2834 66.8858 24.1182 66.3339 24.3426C66.5304 23.9813 66.3882 23.9633 65.8489 24.0109C65.3083 24.0584 65.346 24.4731 64.8054 24.5207C64.2648 24.5689 58.9964 24.1941 58.4538 24.2417C57.9119 24.2899 57.5711 24.4982 57.2568 24.7579C57.1622 24.4602 57.4785 24.3278 56.9359 24.3754L53.4614 24.6801C52.9175 24.7277 53.1722 25.1249 52.8751 25.1198C52.799 24.6325 52.5264 24.3419 51.9818 24.3747L48.23 24.7032C48.1711 24.4082 48.2711 24.295 47.7258 24.3426C47.1806 24.3902 46.7823 24.8447 46.237 24.8929C45.6911 24.9411 44.3439 24.6383 43.798 24.6865C43.2521 24.7347 42.6341 25.2092 42.0876 25.2567C41.541 25.3049 39.9331 24.6036 39.3865 24.6518C38.8386 24.7 39.0954 25.0986 38.5482 25.1462C38.0003 25.1944 37.9626 24.7765 37.414 24.8241C36.8668 24.8723 37.2056 25.2638 36.6577 25.3094L32.9225 25.636C32.1946 25.2625 31.4224 24.9263 30.8725 24.9739L25.0636 25.4817C24.5124 25.5299 24.7704 25.9292 24.4912 25.9382C24.1881 25.4997 23.9605 25.5782 23.4087 25.6264C23.0772 25.6559 22.5359 26.1259 22.4532 26.1329C21.9007 26.1812 19.7244 25.5254 19.1719 25.5737C18.6187 25.6219 18.4354 26.0609 17.8822 26.1092C17.329 26.1574 16.7368 25.7858 16.183 25.8347C15.6292 25.8829 14.7809 26.3804 14.2264 26.4293C13.6719 26.4775 12.0798 26.1927 11.524 26.2416C10.9689 26.2898 8.82763 27.1352 7.71466 26.9134C7.25743 26.8208 6.68639 27.274 6.63875 26.7469L6.57523 26.0288C6.52693 25.5023 7.02981 26.0957 6.98217 25.5685C6.93387 25.042 6.68441 25.0497 6.49715 24.9507C6.39326 24.3509 6.20137 23.3031 5.98037 22.4243C5.5721 22.4494 5.14796 22.6924 5.11488 22.2546L5.06194 21.5564C5.0229 21.0396 5.64423 21.5597 5.60519 21.0428C5.56615 20.5259 4.62655 18.6719 4.43929 18.571C4.24674 17.3676 4.2732 18.2027 3.90729 17.1092C3.72731 16.6013 3.90464 15.8993 3.63533 15.3452C3.40109 14.8662 3.15362 14.3095 3.05966 13.72C2.89225 13.5484 2.41451 13.5162 2.37481 12.9994C2.33511 12.4819 2.99548 12.2318 2.95578 11.7143C2.91607 11.1968 2.76852 11.5034 2.58589 11.4089C2.45421 11.0419 2.71426 9.48037 2.65537 9.08565C2.40062 7.79223 1.16458 7.58523 0.798 6.41908C1.11958 6.39851 1.23869 6.30337 1.26582 6.15165C0.871448 5.95173 0.722567 5.53451 0.403632 5.48051L0 2.87051C0.0165423 2.35173 0.389736 2.37551 0.423483 1.85737C0.457229 1.33923 0.730507 1.37008 0.730507 1.37008L3.13377 1.25887C3.69753 1.29294 3.43749 0.796655 3.99993 0.840369L5.95853 0.688655C6.52031 0.654583 6.69235 1.05958 7.25412 1.02487C7.8159 0.990797 7.67231 0.584512 8.23409 0.55044C8.7952 0.515726 8.71448 0.936155 9.27625 0.902083C9.83737 0.868012 10.0299 0.441797 10.3151 0.439869C10.6149 0.87894 10.9907 1.21323 11.5511 1.17915C11.8033 1.16373 12.2208 0.722726 13.9882 0.695726C13.5058 1.0493 13.0572 1.0763 12.6767 1.24665C12.9195 1.56808 12.9427 1.71658 13.5031 1.68187C14.0629 1.6478 14.3064 1.45558 14.5036 1.27558L14.4533 0.615369L16.6329 0.482297C16.7964 1.02423 17.2046 0.83394 17.8194 0.796012C18.3785 0.761297 19.4637 0.281726 20.0221 0.247655C20.5799 0.213583 21.9503 0.544012 22.5074 0.50994C23.0652 0.477155 23.6568 0.470726 24.1306 -0.000488281C25.3243 0.453369 25.1277 1.8278 26.2685 1.75837C26.4074 1.75001 26.6748 1.72944 27.089 1.03708C27.3808 0.87444 27.7553 0.737512 27.7672 0.457226C28.0656 0.409012 27.8744 0.833297 28.4309 0.799226C28.9861 0.765155 28.6062 0.169226 29.1621 0.135155C29.7172 0.101083 32.7921 0.740083 34.4324 0.882797C34.4662 2.47387 36.2607 1.00944 37.0865 1.35851C37.4081 1.71723 37.7879 2.06244 38.3411 2.02837C38.8942 1.9943 38.9399 1.5803 39.4375 1.37973C39.7849 1.23958 40.1739 1.29744 40.4029 1.38615C40.1892 1.50251 39.9543 1.67673 39.9351 1.81365C41.7183 2.04765 40.162 1.5038 41.404 1.4273C41.9565 1.39387 41.766 1.81687 42.3185 1.7828C42.8697 1.74873 42.3979 1.36623 42.9491 1.33215C43.5009 1.29808 43.532 1.70758 44.0832 1.67415C44.6344 1.63944 45.1108 1.29423 45.9029 1.1123C45.4668 0.827512 44.3016 0.661012 44.6602 0.475869C44.6602 0.475869 44.8223 0.461083 45.3543 0.394226C45.6395 0.358869 46.4865 0.494512 46.4865 0.494512L47.395 0.36144C47.0522 0.679012 46.9351 0.785726 47.0178 0.962512C47.3434 1.36365 49.0869 1.39194 50.3435 1.21194C50.7809 1.15923 51.2679 1.86765 51.8164 1.83358C52.3656 1.79951 52.3345 1.39065 52.8837 1.35658C53.4323 1.32315 54.5598 1.66387 55.1083 1.6298C55.6562 1.59637 56.5018 1.13351 57.0497 1.09944C57.5969 1.06537 57.9112 1.67223 58.2977 1.84387C58.4439 1.65873 58.2851 1.43373 58.8317 1.39965C59.3789 1.36623 59.2399 1.40415 59.5112 1.66515C59.2809 1.95701 59.2856 2.0168 59.4642 2.18265L60.2166 1.96794C60.1822 1.8278 59.7296 1.65165 59.7375 1.37523L60.5521 1.32508C60.605 1.59765 60.5031 1.7063 61.0496 1.67223C61.5962 1.63815 61.5658 1.23058 62.1117 1.19651C62.6576 1.16308 63.1558 1.95123 63.701 1.91715C64.2463 1.88308 65.4982 1.39965 66.2995 1.18558L66.2539 0.576797L66.8156 0.542083C67.071 0.705369 67.0935 1.10844 67.3033 1.21515C69.7158 1.54558 74.2087 2.08173 74.752 2.04765C75.2945 2.01423 76.4571 1.53401 76.9984 1.50058C77.5403 1.46651 78.9193 1.79951 79.7491 2.14601C79.8933 1.96151 79.9529 1.7243 80.4935 1.69087C80.9262 1.66387 82.2754 1.84065 83.3546 1.92937L83.2812 2.77087L82.996 2.78951L83.0522 3.54101L83.8522 3.49087L83.8244 3.12058C85.2007 3.33915 86.6743 3.60401 87.6278 4.7483C87.7343 4.23273 87.9375 3.72101 88.439 3.50244C88.5509 3.68051 88.6389 3.88044 88.6958 4.08165C88.7533 3.91515 88.8394 3.68565 88.9882 3.57765C89.0729 3.75701 89.1318 3.95373 89.1609 4.14787C89.3264 4.00001 90.4724 2.86023 90.4122 3.22858C93.3627 5.45994 93.4183 3.13923 95.9823 4.15815L95.4523 4.35808C96.0412 4.53744 96.6242 4.3568 97.1628 4.14851C97.6028 4.47637 100.367 4.62423 100.878 4.64865L101.386 5.27351C102.132 4.6808 102.746 3.89137 103.56 3.39123C103.716 3.9653 104.139 4.44744 104.123 5.06394C104.979 5.2028 105.561 5.12887 106.373 5.05623C106.11 4.6358 105.837 4.29637 105.609 3.89137C105.556 3.79687 105.706 3.67215 105.802 3.76087ZM127.866 11.6757L128.768 11.3826C128.911 11.4173 128.996 11.3794 128.957 11.3003C128.919 11.2206 128.856 11.0451 129.001 11.0168L129.159 10.9859C129.303 10.9577 129.375 11.0425 129.318 11.1749C129.261 11.3074 129.338 11.6249 129.482 11.6552C129.482 11.6552 129.678 11.6963 129.93 11.7349C130.045 11.7767 130.098 11.8159 130.115 11.8564C129.382 12.0608 128.655 12.1437 127.866 11.6757ZM120.374 24.9231C120.014 24.9064 119.654 24.8916 119.293 24.8781C119.531 24.6409 119.776 24.4152 120.053 24.2301C120.128 24.4737 120.259 24.6962 120.374 24.9231ZM122.639 25.1937C122.495 25.1629 122.349 25.1327 122.201 25.1037C121.898 24.6537 121.614 24.1986 121.447 23.6702C121.019 23.9736 120.806 23.7544 120.672 23.2767C121.243 22.9 121.791 22.4905 122.367 22.1209C122.654 22.5079 123.1 22.7972 123.302 23.2433C122.916 23.5712 122.387 23.5949 121.959 23.845C122.618 24.151 122.589 24.6634 122.639 25.1937ZM94.8958 2.82551L95.809 2.7683C95.8897 2.76315 96.8783 2.29515 97.2012 2.27523C97.7365 2.2418 98.6238 2.59215 99.4886 2.63908C99.2822 2.75351 99.1823 2.87758 99.1823 2.87758C99.3755 2.98044 99.5118 2.94187 99.6852 2.93865C99.8512 2.74773 99.6957 2.52465 100.231 2.49123C100.766 2.4578 100.645 2.69758 100.836 2.86408L102.27 2.77473C102.346 2.80558 102.421 2.84223 102.496 2.88658C102.24 3.25108 101.84 3.16237 101.45 3.19194C101.621 3.50758 101.725 3.93701 101.441 4.20123L100.524 3.9833C100.655 3.91773 100.742 3.8258 100.719 3.70751C100.526 3.6998 100.229 3.75637 100.066 3.87401L99.2312 3.70944C99.4681 3.60915 100.059 3.60851 100.312 3.59244L99.8056 2.88208C99.2974 3.24787 98.3346 3.69337 98.0237 2.77344C97.9145 2.96308 98.2367 3.18165 97.9072 3.16044L97.7352 3.14244C97.3103 3.08265 97.1476 2.83451 96.8425 3.20801C97.3679 3.35265 97.8159 3.66187 98.3135 3.87401L95.9148 3.71201C95.5549 3.4523 95.2981 3.00358 94.8958 2.82551ZM94.6834 2.76444L94.651 2.86794C94.5703 3.12508 94.3976 3.35587 94.2196 3.53265L94.1554 3.59694L94.1025 3.5243C93.9456 3.31023 93.7696 3.11865 93.5844 2.9618L93.4421 2.84223L94.6834 2.76444ZM91.9215 2.74065L92.0307 2.77665L91.9553 2.86087C91.8348 2.99523 91.7237 3.17651 91.6277 3.41308L91.4808 3.40023C91.4345 3.17073 91.42 2.91487 91.3743 2.66994L91.3512 2.54073L91.4769 2.58701C91.6344 2.64358 91.7832 2.6963 91.9215 2.74065ZM89.4011 2.59215L89.3469 1.86637L89.4514 1.89401C89.8802 2.00523 90.3355 2.1653 90.7702 2.32473L90.8847 2.36715L90.7953 2.44944C90.1872 3.0068 89.7379 2.99523 89.3502 2.76894L89.2622 2.71687L89.4011 2.59215ZM87.7145 2.00523L87.598 2.1338L87.4624 2.28551C87.4154 2.3363 87.3645 2.38644 87.3075 2.42887C87.1911 2.5163 87.0502 2.57094 86.8655 2.54651C86.5321 2.50151 86.3891 2.3408 86.2912 2.1473L86.2383 2.04251C86.2383 2.04251 86.5208 1.95315 86.7081 1.9268C87.0978 1.87151 87.7145 2.00523 87.7145 2.00523ZM85.4211 2.0618L85.2239 2.20323C85.0459 2.33051 84.8917 2.40187 84.766 2.47773C84.6482 2.54844 84.5688 2.61594 84.5205 2.73487L84.4246 2.96758L84.3743 2.72201C84.3485 2.59665 84.3174 2.52915 84.2929 2.46101C84.2651 2.38323 84.2459 2.30351 84.2486 2.16273L84.2492 2.09073L85.4211 2.0618Z" fill="#00C800"/>
<path fill-rule="evenodd" clip-rule="evenodd" d="M15.4776 20.5002V7.69125H10.8134V5.98189H21.8219V7.69125H17.3859V20.5002H15.4776ZM23.4861 20.5079H25.3176V15.1587C25.3176 14.5351 25.3176 13.5901 25.626 13.027C25.8761 12.5442 26.3221 11.6795 27.7269 11.6795C29.8085 11.6795 29.9832 13.6306 29.9832 14.5351V20.5079H31.8333V14.1937C31.8333 12.7261 31.5594 12.1816 31.3668 11.7792C30.8077 10.5532 29.35 9.97532 27.7374 10.0396C26.8984 10.0737 25.9555 10.2787 25.3183 11.1106V5.9896H23.4867L23.4861 20.5079ZM35.3502 15.7803C35.3118 17.8715 36.0582 19.4202 38.1253 19.4202C38.8962 19.4202 40.2467 18.7767 40.4009 17.3277H42.2126C42.1544 17.8317 42.0776 18.6552 41.3835 19.4395C40.96 19.9428 39.9953 20.7869 38.0486 20.7869C35.2807 20.7869 33.557 18.8165 33.557 15.619C33.557 13.6287 33.9421 11.9797 35.4653 10.8734C36.3904 10.19 37.547 10.129 38.1061 10.129C42.0578 10.129 42.3469 14.1314 42.3085 15.7803H35.3502ZM40.4585 14.4528C40.4783 13.4872 40.1071 11.4764 38.0684 11.4764C36.8933 11.4764 35.466 12.2208 35.4276 14.4528H40.4585ZM44.0521 20.4854H47.387V8.81753L50.4295 20.486H53.8987L57.0643 8.91782V20.486H60.7075L60.6884 5.94653L54.7034 5.99025L52.3967 15.4563L49.6209 5.99025L44.0528 5.9671L44.0521 20.4854ZM68.9112 13.9707C64.7472 13.7894 62.2989 14.7948 62.2989 17.5501C62.2989 19.3398 63.3404 20.6872 65.7113 20.6872C67.697 20.6872 68.892 19.0377 68.892 19.0377V20.4854H72.2852V13.8498C72.2852 12.7634 72.0536 11.819 71.4369 11.1955C70.4159 10.1502 68.5645 10.0293 67.6977 10.0293C65.9435 10.0293 64.4401 10.4922 63.6878 11.2964C63.085 11.9418 62.9785 12.6406 62.9487 13.126L66.1685 13.124C66.191 12.2677 66.9188 11.81 67.5342 11.81C68.5625 11.8094 69.0144 12.6991 68.9112 13.9707ZM65.8661 17.2075C65.8661 17.9519 66.3279 18.5748 67.1954 18.5748C67.5812 18.5748 68.2561 18.4135 68.622 17.6099C68.9112 16.9664 68.9112 16.1416 68.892 15.7192C67.3496 15.7405 65.8661 15.7604 65.8661 17.2075ZM74.3159 20.4854H77.9208V16.202C77.9208 15.1162 78.2305 13.405 80.4465 13.405C80.6972 13.405 80.7932 13.3651 81.218 13.405V10.525C80.3889 10.505 78.5772 10.3154 77.7474 11.6242V10.39H74.3159V20.4854ZM93.5599 20.4854L90.0106 14.6534L93.0795 10.3906H89.4362L86.1502 14.9227L89.5712 20.4847H93.5599V20.4854ZM82.5745 5.9671V20.4854H86.1218V5.9671H82.5745ZM105.269 20.4854H108.874V16.202C108.874 15.1162 109.184 13.405 111.4 13.405C111.651 13.405 111.747 13.3651 112.171 13.405V10.525C111.342 10.505 109.53 10.3154 108.701 11.6242V10.39H105.269V20.4854ZM96.8882 17.383C96.7611 16.9908 96.7942 16.5736 96.7942 16.2027H103.741C103.741 14.4329 103.624 13.468 103.199 12.6033C102.545 11.1755 101.161 10.0293 98.592 10.0293C95.1631 10.0293 93.4454 12.2215 93.4454 15.5997C93.4454 18.9374 95.6402 20.947 98.592 20.947C100.971 20.947 103.27 19.7422 103.722 17.2814H100.271C100.043 18.2759 99.2292 18.695 98.592 18.695C97.6696 18.695 97.1171 18.0882 96.8882 17.383ZM100.327 14.1513C100.327 13.432 99.8691 12.2407 98.5914 12.2407C97.0953 12.2407 96.7942 13.7071 96.8379 14.1513H100.327Z" fill="white"/>
</g>
<defs>
<clipPath id="clip0_543_8625">
<rect width="133" height="27" fill="white" transform="translate(0 -0.000488281)"/>
</clipPath>
</defs>
</svg>
