<svg width="73" height="39" viewBox="0 0 73 39" fill="none" xmlns="http://www.w3.org/2000/svg">
<path d="M71.7635 1.90232C70.6567 2.17955 70.2692 2.67811 70.2692 4.22831V29.9277C70.2692 35.8548 66.7239 38.9566 62.1264 38.9566C57.9722 38.9566 55.5344 35.5776 55.5903 31.8669C55.6469 28.9864 57.7509 27.5465 59.468 27.7686C60.6306 27.9341 61.905 28.765 61.7388 30.7586C61.5174 33.5288 58.6363 33.417 58.4715 35.1349C58.4156 36.1313 59.7445 37.5161 61.5175 37.5161C64.2862 37.5161 64.6193 34.5253 64.6193 30.8145V4.17315C64.6193 2.56708 64.0089 2.17955 62.9015 1.90232L61.5175 1.56992V0.572754H72.9821V1.56992L71.7635 1.90232Z" fill="#1C1C21"/>
<path d="M40.5359 5.87078C40.5359 14.1232 52.9977 17.114 52.9977 28.4683C52.9977 34.3403 49.2317 38.6047 44.3018 38.6047C41.0896 38.6047 39.9821 36.3891 38.9291 36.3891C38.3202 36.3891 37.6003 36.5552 37.0465 38.3827H36.3817V25.7547H37.4341C38.0988 32.7893 40.5359 37.1642 44.2466 37.1642C46.7388 37.1642 48.567 34.9485 48.567 31.0164C48.567 22.3757 36.1045 18.4436 36.1045 9.08292C36.1045 3.9323 39.3174 -0.000488281 44.0253 -0.000488281C47.0712 -0.000488281 47.736 1.99384 49.0104 1.99384C49.7296 1.99384 50.2282 1.43938 50.5054 0.220855H51.1702V12.8495H50.1179C49.4531 6.59071 47.9574 1.43936 43.9694 1.43936C41.2007 1.43936 40.5359 4.09851 40.5359 5.87078Z" fill="#1C1C21"/>
<path d="M12.5728 38.8456H10.3019L3.26802 5.6682C2.60324 2.62225 2.04878 2.12365 1.05233 1.84642L0 1.56992V0.572754H10.9116V1.56992L10.0799 1.7361C8.3076 2.06849 8.4738 3.78561 8.97238 6.05646L13.2014 26.9396L16.4461 9.82277L15.3974 4.78279C14.9547 2.67813 14.7885 2.01262 13.6803 1.7361L12.9603 1.56992V0.572754H23.6498V1.56992L22.432 1.79126C20.6039 2.12365 20.8804 3.89592 21.3238 6.05646L25.4294 27.0957L29.466 7.21911C30.241 3.12082 29.8535 2.12365 28.1923 1.79126L27.0289 1.56992V0.572754H34.8386V1.56992L33.7863 1.84642C32.4567 2.17953 32.0692 3.3422 31.3493 6.72126L24.5918 38.8456H22.5975L17.3538 13.5511L12.5728 38.8456Z" fill="#1C1C21"/>
</svg>
