<svg width="80" height="20" viewBox="0 0 80 20" fill="none" xmlns="http://www.w3.org/2000/svg">
<path fill-rule="evenodd" clip-rule="evenodd" d="M2.664 1.42859C2.664 1.42859 0 1.42859 0 4.12287V17.0657C0 17.0657 0 19.7657 2.664 19.7657H15.4315C15.4315 19.7657 18.0955 19.7657 18.0955 17.0657V4.12287C18.0955 4.12287 18.0955 1.42859 15.4315 1.42859H2.664Z" fill="#00AEEF"/>
<path fill-rule="evenodd" clip-rule="evenodd" d="M13.2635 3.59715H9.1421C8.82763 3.57217 8.54004 3.77728 8.45707 4.08572C8.0765 5.53715 6.3005 11.4286 6.3005 11.4286C6.1229 11.8829 6.62469 11.8829 6.62469 11.8829H10.749C11.0624 11.9064 11.3484 11.7016 11.4312 11.3943C11.8146 9.94286 13.5877 4.06 13.5877 4.06C13.7653 3.60572 13.2635 3.60572 13.2635 3.60572" fill="white"/>
<path fill-rule="evenodd" clip-rule="evenodd" d="M10.3797 13.4714H6.25547C5.9412 13.4482 5.65492 13.6544 5.57326 13.9629C5.18987 15.4114 4.64297 17.1343 4.64297 17.1343C4.46255 17.5914 4.96716 17.5914 4.96716 17.5914H9.08861C9.40308 17.6164 9.69067 17.4113 9.77364 17.1029C10.1486 15.6514 10.7124 13.9286 10.7124 13.9286C10.89 13.4714 10.3882 13.4714 10.3882 13.4714" fill="white"/>
<path d="M34.99 3.08002V18.1086H30.0059V6.99716H22.2874V3.08002H34.99ZM22.3043 9.86573H27.1277V18.1086H22.3127L22.3043 9.86573Z" fill="black"/>
<path d="M49.4517 3.08L44.7833 18.1086H39.6414L43.0947 6.99714H36.7744V0H41.502V3.08H49.4517Z" fill="black"/>
<path d="M59.5355 18.1086L55.307 10.4714C54.9546 10.5086 54.4105 10.7571 54.4105 11.7514V18.1086H49.8972V12.68C49.8972 10.2914 50.8923 8.20855 53.7001 7.86284L50.5992 3.07141H55.5466L59.606 10.0943C60.2629 10.0686 60.5053 9.4657 60.5053 7.97427V3.07998H65.1257V7.7857C65.1257 10.7171 63.6175 11.9857 61.1029 12.3057L64.7113 18.1086H59.5355Z" fill="black"/>
<path d="M72.255 3.08002V18.1086H67.1807V3.08002H72.255Z" fill="black"/>
<path d="M79.9088 3.08002V18.1086H74.8345V3.08002H79.9088Z" fill="black"/>
</svg>
