<svg width="133" height="28" viewBox="0 0 133 28" fill="none" xmlns="http://www.w3.org/2000/svg">
<g clip-path="url(#clip0_462_5682)">
<path d="M128.093 14.0626C128.127 13.7585 128.263 13.5521 128.451 13.3323L128.514 13.2583L127.367 13.3104C127.096 13.3123 127.031 13.385 126.975 13.4589C126.951 13.4911 126.932 13.5142 126.897 13.5328C126.863 13.5508 126.806 13.5682 126.693 13.5733C126.461 13.5836 126.318 13.565 126.195 13.5296C126.132 13.5116 126.073 13.4885 126.012 13.4628C125.948 13.4358 125.88 13.4056 125.801 13.3747L125.694 13.3323L125.743 13.7887L124.824 13.8459C124.816 14.123 125.27 14.3004 125.322 14.5749L126.136 14.5241L126.103 14.0722C126.801 13.7707 127.505 13.7566 127.982 14.0908L128.082 14.1616L128.093 14.0626ZM122.32 12.557C121.987 12.1031 121.09 11.243 120.723 12.0202C120.904 12.1803 121.157 12.2606 121.275 12.4991L122.32 12.557ZM124.082 12.7003C124.644 11.7695 124.599 11.5606 125.73 12.0556C125.614 11.9083 125.502 11.7521 125.429 11.5721C124.859 11.4969 124.288 11.4185 123.716 11.3394C123.744 11.4571 123.775 11.6133 123.703 11.7116C123.191 11.3523 122.489 11.1928 121.924 11.3561C122.848 11.6081 123.257 12.2278 124.082 12.7003ZM127.472 20.3536C126.519 21.1957 126.997 22.0468 125.271 20.9553C125.338 21.1346 125.396 21.3365 125.395 21.5281L127.255 21.935C127.278 21.7981 127.328 21.6033 127.445 21.5139C127.851 21.9755 128.788 22.178 129.354 22.052C127.18 21.2703 129.162 21.7003 127.472 20.3536ZM28.4653 2.59077L26.9447 2.67306L27.1591 3.3667L28.5242 3.35963L28.4653 2.59077ZM30.2684 1.33142L29.432 1.38477L29.4909 2.15234L30.4696 2.27063L30.2684 1.33142ZM33.9798 1.8457L33.0866 1.90292C33.078 2.2012 32.9661 2.31884 32.6459 2.3722L32.7081 3.18863L33.602 3.13141C33.6093 2.8312 33.7218 2.71356 34.0427 2.6647L33.9798 1.8457ZM118.604 8.17913L120.507 8.05634C119.778 7.78699 118.78 7.21356 118.604 8.17913ZM94.2315 5.35763L93.0921 5.43091C92.5561 5.43349 92.8797 5.81791 92.3457 5.85199C91.8117 5.8867 91.6608 5.72277 91.3114 5.52156L91.3981 6.68834C92.2636 6.03906 93.2012 5.92977 93.8246 6.56299C93.8629 6.05899 94.0204 5.71506 94.2315 5.35763ZM52.7249 3.09477L51.4697 3.17256C51.4611 3.45027 51.915 3.6277 51.9686 3.9022L52.7825 3.85142L52.7249 3.09477ZM38.8737 2.94627C38.742 2.86977 38.5376 2.77913 38.3311 2.81256L38.2054 2.83249L38.2008 2.95656C38.1816 3.43613 38.7453 3.4657 39.053 3.37377L39.3137 3.29534C39.3137 3.29534 39.0868 3.09284 39.0438 3.05877C39.0021 3.02792 38.9425 2.98613 38.8737 2.94627ZM19.7846 1.89649C20.1485 1.9447 20.6878 1.89842 21.2072 1.51656L21.5347 1.27613L21.1265 1.2427C20.5733 1.19834 19.954 1.24527 19.6754 1.66184L19.5398 1.86434L19.7846 1.89649ZM66.148 3.84949C66.3127 3.78263 66.4921 3.65856 66.4537 3.46056L66.4424 3.40142L66.3816 3.39949C66.2221 3.39306 66.0024 3.42584 65.8264 3.49656C65.6623 3.56342 65.483 3.68813 65.5214 3.88549L65.5319 3.94399L65.5928 3.94656C65.7523 3.95299 65.972 3.9202 66.148 3.84949ZM61.3156 3.74084C61.4811 3.67399 61.6604 3.54992 61.6227 3.35192L61.6108 3.29342L61.5499 3.29084C61.3904 3.28442 61.1701 3.31784 60.9941 3.38856C60.8286 3.45542 60.6493 3.58077 60.6877 3.77749L60.699 3.83663L60.7598 3.8392C60.9193 3.84499 61.139 3.8122 61.3156 3.74084ZM64.4375 3.65213C64.5844 3.51199 64.7134 3.34227 64.679 3.16356L64.6665 3.09863L63.7308 3.15649L63.8049 4.14713L63.9181 4.06356C64.0028 4.0012 64.0941 3.93499 64.1828 3.86684C64.2741 3.79677 64.3614 3.72477 64.4375 3.65213ZM105.802 4.2262C105.928 4.0462 105.668 3.83149 106.194 3.79677C106.722 4.3702 106.352 5.1892 106.715 5.92463C108.238 4.88642 107.899 6.0757 109.122 6.25506C109.834 6.35984 110.493 5.91306 111.19 5.87642C110.703 5.61799 110.008 5.5897 109.28 5.32741C108.809 5.15834 107.942 5.0272 108.093 4.84206C108.638 4.82277 109.223 4.70513 109.692 4.84849C110.24 5.01563 110.747 5.53249 111.279 5.49906L113.807 5.31134C114.338 5.27727 113.36 5.8867 114.51 5.7787C115.402 5.69513 114.336 5.30427 114.868 5.27084C115.399 5.23741 116.844 6.13099 117.731 6.22549C118.993 6.37142 120.503 6.5257 121.85 6.46913C121.916 6.93906 122.121 7.25792 122.384 7.57934L121.753 7.61984C121.227 7.68927 121.408 7.27399 121.252 7.26949C121.105 7.6417 120.697 7.72334 120.734 8.22541C120.771 8.72749 120.954 8.74484 121.104 8.90749C121.229 8.72749 120.968 8.51277 121.498 8.4787C122.027 8.44463 122.226 9.04699 122.728 9.3292C122.207 9.44041 121.842 9.23341 121.665 9.41341C121.686 9.57541 121.852 9.60563 121.852 9.60563L121.99 9.61206L121.809 9.63199C121.663 9.6082 121.453 9.50599 121.343 9.40506L120.998 9.12092C120.904 9.00327 120.81 8.9602 120.787 9.02641C120.763 9.09263 120.65 9.20063 120.616 9.13699C120.583 9.0727 120.505 8.96534 120.472 9.03156C120.438 9.09842 120.254 9.15691 120.165 9.0367L119.961 8.67413C119.935 8.52434 119.801 8.44463 119.661 8.49541L117.318 9.13313C117.17 9.13249 117.044 9.25591 117.039 9.40699L117.025 9.84284C117.02 9.99392 117.1 10.1604 117.204 10.2131C117.308 10.2652 117.616 10.1591 117.622 10.0087L117.705 9.54584C117.729 9.39606 117.829 9.36584 117.929 9.47899L118.474 10.1315C118.59 10.2247 118.731 10.1855 118.784 10.0453C118.784 10.0453 118.885 9.78241 119.27 9.77984C119.635 9.77792 119.616 10.2909 119.982 10.2909C120.597 10.2916 121.638 10.4156 121.638 10.4156C121.785 10.433 121.957 10.3353 122.021 10.1996L122.222 9.8557C122.248 9.7072 122.371 9.65449 122.493 9.7387L123.682 9.88013C123.808 9.8017 123.957 9.80941 124.014 9.8962C124.069 9.98299 124.237 10.1746 124.366 10.1026L124.833 9.92642C124.882 9.8782 124.95 9.83642 125.025 9.80556L126.361 9.89427C126.345 9.9052 126.322 9.91677 126.293 9.9277L125.825 10.0473C125.685 10.0923 125.633 10.1559 125.711 10.1881C125.79 10.2202 126.149 10.244 126.179 10.2453C126.209 10.2459 126.231 10.2748 126.228 10.3089C126.226 10.3436 126.395 10.4728 126.539 10.4394L127.186 10.4176C127.305 10.5056 127.484 10.4857 127.583 10.3732L127.636 10.3121C127.734 10.1996 127.738 10.1032 127.646 10.0981C127.554 10.0923 127.457 9.99199 127.603 9.97656C127.936 9.98877 128.231 10.0036 128.526 10.0177C128.544 10.0434 128.555 10.073 128.559 10.1045C128.576 10.2292 128.572 10.523 128.708 10.5307C128.655 10.5828 128.604 10.6451 128.563 10.7255C128.641 10.7795 128.749 10.8039 128.865 10.8181L128.397 10.8438C128.254 10.8084 128.1 10.8862 128.055 11.0161C128.01 11.1459 127.983 11.5014 127.841 11.4988C127.766 11.4969 127.622 11.5747 127.512 11.6621C127.286 11.6968 127.058 11.6576 126.831 11.5168C127.102 12.6001 126.335 12.1134 125.986 12.6785L125.622 12.2703L125.901 13.0494C126.285 12.9691 126.651 12.521 127.031 12.5184C127.836 12.5133 128.599 13.1259 129.406 13.1838C129.495 13.1818 129.602 13.1716 129.721 13.1529C129.702 13.3291 129.709 13.5425 129.725 13.7585C129.762 14.2593 130.402 14.0658 130.439 14.5666C130.476 15.0667 129.399 15.7411 129.437 16.2412C129.465 16.6166 130.266 16.7433 131.262 16.9869C131.396 17.7879 132.538 18.7419 132.575 19.2427C132.629 19.9839 132.667 20.3323 132.032 20.9707C132.557 21.2491 132.945 21.4721 132.953 21.5531C133.021 22.3175 133.108 22.4229 132.476 23.0548C132.033 23.2098 131.52 23.42 131.454 23.4174C130.837 23.3891 129.705 22.5573 129.001 22.4808C128.358 22.4101 125.927 23.1301 125.692 23.7491C127.221 23.6501 129.14 22.466 130.45 23.9021C130.245 24.0268 130.005 24.1329 130.039 24.428C130.441 24.2975 130.866 24.2281 131.217 24.5508C131.404 23.1037 132.101 23.7376 132.633 23.4155C132.677 23.4727 132.711 23.5685 132.725 23.7311C132.77 24.2409 132.316 23.87 132.361 24.3798C132.406 24.8896 132.502 24.7783 132.808 24.8066C132.233 25.8384 131.645 26.0872 130.628 26.1791C130.386 26.201 129.933 26.1534 129.416 26.0891L129.586 25.553C129.666 25.4071 129.746 25.2605 129.767 25.2277C129.787 25.1943 129.665 25.1756 129.496 25.1872L128.776 25.2335C128.607 25.2444 128.337 25.2946 128.176 25.3447C128.176 25.3447 128.078 25.3756 128.013 25.4964C127.985 25.5491 127.964 25.5871 127.923 25.6179C127.884 25.6475 127.816 25.6758 127.685 25.6848L127.584 25.6886C127.556 25.6578 127.478 25.6404 127.292 25.6571C127.202 25.6481 127.153 25.6314 127.106 25.6128C127.032 25.5826 126.964 25.5459 126.893 25.5035L126.817 25.4598L126.585 25.3241C126.55 25.3048 126.533 25.4238 126.545 25.589L126.556 25.7233L125.633 25.8063C125.04 25.6488 124.433 25.5453 123.848 25.3492C123.896 24.9043 123.693 24.4588 123.722 24.0082C123.759 23.4573 124.233 24.1374 124.181 23.5858L124.121 23.1873C124.653 23.2773 125.252 23.3094 125.734 23.0542C125.606 22.8588 125.387 22.6794 125.154 22.6473C124.977 23.5408 123.857 22.7193 123.384 22.7257C123.364 22.8581 123.325 23.0471 123.222 23.1423C123.105 22.6627 122.69 22.1536 122.183 22.1086C121.642 22.0597 122.484 22.6048 121.942 22.5521C121.411 22.5007 122.171 22.1073 121.64 22.0558C121.107 22.0038 121.821 22.52 121.289 22.4885C120.683 22.4531 120.007 22.3381 119.442 22.5991C119.414 22.8485 119.633 23.2046 119.638 23.5216L118.73 23.2586C118.94 23.1583 119.181 23.0709 119.165 22.7842C118.201 22.6331 118.007 22.9552 117.108 22.0944C117.036 22.3966 116.992 22.6498 116.785 22.8896C117.166 23.1808 117.719 23.0806 117.862 23.2271C117.663 23.5518 118.05 23.8931 117.83 24.2088C118.269 24.1021 118.705 24.0744 119.124 24.302C118.914 24.6253 118.569 24.563 118.235 24.6022C118.361 24.8169 118.451 25.0966 118.358 25.3222C118.047 25.3151 117.737 25.3106 117.427 25.31L116.659 25.1596C116.859 25.0644 117.1 25.1004 117.315 25.0773L116.814 24.3946C116.389 24.7276 115.576 25.1461 115.283 24.3637C115.194 24.5302 115.478 24.7083 115.194 24.7018L115.046 24.6922C114.68 24.6556 114.533 24.4473 114.282 24.7803C114.671 24.8709 115.016 25.0676 115.379 25.2264L115.333 25.2965L113.501 25.2476C113.115 24.9898 112.852 24.482 112.347 24.4666C112.318 24.6331 112.238 24.7931 112.138 24.9333C112.099 24.9307 112.052 24.9294 111.993 24.9313L111.854 24.9436C111.171 24.1908 110.204 23.8912 109.754 25.1197C109.659 24.7211 109.673 24.2242 109.36 23.9131C107.991 25.6835 107.571 23.9664 106.737 23.8931C106.243 23.8507 106.209 24.545 105.714 24.4987C105.194 24.4498 105.271 24.0307 104.984 23.7247C104.626 24.0217 103.868 24.4717 103.633 24.9127L103.574 24.9101C103.503 24.5514 103.518 24.1818 103.523 23.8179C103.649 23.8693 103.812 23.9587 104.029 24.0956C103.985 23.9806 103.949 23.8507 103.949 23.7273L103.524 23.6193C103.484 23.6109 103.444 23.6083 103.407 23.609L102.753 23.4663C102.738 23.5543 102.706 23.6797 102.63 23.7369C102.37 23.4399 101.767 23.3094 101.404 23.3911C102.801 23.8931 101.527 23.6173 102.614 24.4826L102.664 24.4357L102.643 24.8433C102.282 24.7726 101.947 24.6163 101.767 24.6318C99.4337 24.8394 99.3093 24.6427 98.7786 24.6896C98.2473 24.7372 99.134 25.0728 98.6026 25.1197C98.072 25.1673 97.9469 24.9706 97.7259 24.887C97.929 24.7655 98.0303 24.6748 98.0303 24.6748L95.5688 24.7674C95.1479 24.8053 95.1109 24.3933 94.5789 24.4408C94.0469 24.4878 94.1382 24.6568 93.8748 24.9185C93.3997 24.6241 92.6368 24.6131 92.5567 24.6196C92.0241 24.6671 91.7515 24.68 91.3108 24.9371C90.1912 24.8272 88.0235 24.3978 87.4902 24.4447C86.9562 24.4923 85.8697 24.3798 82.233 24.7018C82.0187 24.7205 81.8479 24.3193 81.312 24.3643L77.4483 24.7051C76.737 24.3354 75.9026 24.0095 75.3647 24.0571C74.8274 24.104 75.2945 24.4801 74.7566 24.5276C74.2193 24.5752 74.3371 24.3251 74.1425 24.1612L71.4918 24.3939C71.1173 24.4293 71.1087 24.6305 71.1385 24.7494C71.0432 24.5199 70.9366 24.4453 70.9366 24.4453C70.8301 24.6343 70.7758 24.8786 70.4549 24.842C70.6653 24.5006 70.3074 24.5019 70.0923 24.5206C67.5051 24.7488 66.8858 24.5836 66.3339 24.8079C66.5304 24.4466 66.3882 24.4286 65.8489 24.4762C65.3083 24.5238 65.346 24.9384 64.8054 24.986C64.2648 25.0342 58.9964 24.6594 58.4538 24.707C57.9119 24.7552 57.5711 24.9635 57.2568 25.2232C57.1622 24.9256 57.4785 24.7931 56.9359 24.8407L53.4614 25.1454C52.9175 25.193 53.1722 25.5903 52.8751 25.5851C52.799 25.0978 52.5264 24.8073 51.9818 24.8401L48.23 25.1686C48.1711 24.8735 48.2711 24.7603 47.7258 24.8079C47.1806 24.8555 46.7823 25.31 46.237 25.3582C45.6911 25.4064 44.3439 25.1036 43.798 25.1518C43.2521 25.2001 42.6341 25.6745 42.0876 25.7221C41.541 25.7703 39.9331 25.0689 39.3865 25.1171C38.8386 25.1653 39.0954 25.5639 38.5482 25.6115C38.0003 25.6597 37.9626 25.2418 37.414 25.2894C36.8668 25.3376 37.2056 25.7291 36.6577 25.7748L32.9225 26.1013C32.1946 25.7278 31.4224 25.3916 30.8725 25.4392L25.0636 25.9471C24.5124 25.9953 24.7704 26.3945 24.4912 26.4035C24.1881 25.9651 23.9605 26.0435 23.4087 26.0917C23.0772 26.1213 22.5359 26.5912 22.4532 26.5983C21.9007 26.6465 19.7244 25.9908 19.1719 26.039C18.6187 26.0872 18.4354 26.5263 17.8822 26.5745C17.329 26.6227 16.7368 26.2511 16.183 26.3C15.6292 26.3482 14.7809 26.8458 14.2264 26.8946C13.6719 26.9428 12.0798 26.6581 11.524 26.7069C10.9689 26.7551 8.82763 27.6005 7.71466 27.3787C7.25743 27.2861 6.68639 27.7393 6.63875 27.2122L6.57523 26.4941C6.52693 25.9676 7.02981 26.561 6.98217 26.0338C6.93387 25.5073 6.68441 25.5151 6.49715 25.4161C6.39326 24.8163 6.20137 23.7684 5.98037 22.8896C5.5721 22.9147 5.14796 23.1577 5.11488 22.7199L5.06194 22.0218C5.0229 21.5049 5.64423 22.025 5.60519 21.5081C5.56615 20.9913 4.62655 19.1373 4.43929 19.0363C4.24674 17.8329 4.2732 18.668 3.90729 17.5745C3.72731 17.0666 3.90464 16.3646 3.63533 15.8105C3.40109 15.3316 3.15362 14.7748 3.05966 14.1853C2.89225 14.0137 2.41451 13.9816 2.37481 13.4647C2.33511 12.9472 2.99548 12.6971 2.95578 12.1796C2.91607 11.6621 2.76852 11.9688 2.58589 11.8743C2.45421 11.5072 2.71426 9.9457 2.65537 9.55099C2.40062 8.25756 1.16458 8.05056 0.798 6.88442C1.11958 6.86384 1.23869 6.7687 1.26582 6.61699C0.871448 6.41706 0.722567 5.99984 0.403632 5.94584L0 3.33584C0.0165423 2.81706 0.389736 2.84084 0.423483 2.3227C0.457229 1.80456 0.730507 1.83542 0.730507 1.83542L3.13377 1.7242C3.69753 1.75827 3.43749 1.26199 3.99993 1.3057L5.95853 1.15399C6.52031 1.11992 6.69235 1.52492 7.25412 1.4902C7.8159 1.45613 7.67231 1.04984 8.23409 1.01577C8.7952 0.981058 8.71448 1.40149 9.27625 1.36742C9.83737 1.33334 10.0299 0.907129 10.3151 0.905201C10.6149 1.34427 10.9907 1.67856 11.5511 1.64449C11.8033 1.62906 12.2208 1.18806 13.9882 1.16106C13.5058 1.51463 13.0572 1.54163 12.6767 1.71199C12.9195 2.03342 12.9427 2.18192 13.5031 2.1472C14.0629 2.11313 14.3064 1.92092 14.5036 1.74092L14.4533 1.0807L16.6329 0.947629C16.7964 1.48956 17.2046 1.29927 17.8194 1.26134C18.3785 1.22663 19.4637 0.747058 20.0221 0.712987C20.5799 0.678915 21.9503 1.00934 22.5074 0.975272C23.0652 0.942487 23.6568 0.936058 24.1306 0.464844C25.3243 0.918701 25.1277 2.29313 26.2685 2.2237C26.4074 2.21534 26.6748 2.19477 27.089 1.50242C27.3808 1.33977 27.7553 1.20284 27.7672 0.922558C28.0656 0.874344 27.8744 1.29863 28.4309 1.26456C28.9861 1.23049 28.6062 0.634558 29.1621 0.600487C29.7172 0.566415 32.7921 1.20542 34.4324 1.34813C34.4662 2.9392 36.2607 1.47477 37.0865 1.82384C37.4081 2.18256 37.7879 2.52777 38.3411 2.4937C38.8942 2.45963 38.9399 2.04563 39.4375 1.84506C39.7849 1.70492 40.1739 1.76277 40.4029 1.85149C40.1892 1.96784 39.9543 2.14206 39.9351 2.27899C41.7183 2.51299 40.162 1.96913 41.404 1.89263C41.9565 1.8592 41.766 2.2822 42.3185 2.24813C42.8697 2.21406 42.3979 1.83156 42.9491 1.79749C43.5009 1.76342 43.532 2.17292 44.0832 2.13949C44.6344 2.10477 45.1108 1.75956 45.9029 1.57763C45.4668 1.29284 44.3016 1.12634 44.6602 0.941201C44.6602 0.941201 44.8223 0.926415 45.3543 0.859558C45.6395 0.824201 46.4865 0.959844 46.4865 0.959844L47.395 0.826772C47.0522 1.14434 46.9351 1.25106 47.0178 1.42784C47.3434 1.82899 49.0869 1.85727 50.3435 1.67727C50.7809 1.62456 51.2679 2.33299 51.8164 2.29892C52.3656 2.26484 52.3345 1.85599 52.8837 1.82192C53.4323 1.78849 54.5598 2.1292 55.1083 2.09513C55.6562 2.0617 56.5018 1.59884 57.0497 1.56477C57.5969 1.5307 57.9112 2.13756 58.2977 2.3092C58.4439 2.12406 58.2851 1.89906 58.8317 1.86499C59.3789 1.83156 59.2399 1.86949 59.5112 2.13049C59.2809 2.42234 59.2856 2.48213 59.4642 2.64799L60.2166 2.43327C60.1822 2.29313 59.7296 2.11699 59.7375 1.84056L60.5521 1.79042C60.605 2.06299 60.5031 2.17163 61.0496 2.13756C61.5962 2.10349 61.5658 1.69592 62.1117 1.66184C62.6576 1.62842 63.1558 2.41656 63.701 2.38249C64.2463 2.34842 65.4982 1.86499 66.2995 1.65092L66.2539 1.04213L66.8156 1.00742C67.071 1.1707 67.0935 1.57377 67.3033 1.68049C69.7158 2.01092 74.2087 2.54706 74.752 2.51299C75.2945 2.47956 76.4571 1.99934 76.9984 1.96592C77.5403 1.93184 78.9193 2.26484 79.7491 2.61134C79.8933 2.42684 79.9529 2.18963 80.4935 2.1562C80.9262 2.1292 82.2754 2.30599 83.3546 2.3947L83.2812 3.2362L82.996 3.25484L83.0522 4.00634L83.8522 3.9562L83.8244 3.58592C85.2007 3.80449 86.6743 4.06934 87.6278 5.21363C87.7343 4.69806 87.9375 4.18634 88.439 3.96777C88.5509 4.14584 88.6389 4.34577 88.6958 4.54699C88.7533 4.38049 88.8394 4.15099 88.9882 4.04299C89.0729 4.22234 89.1318 4.41906 89.1609 4.6132C89.3264 4.46534 90.4724 3.32556 90.4122 3.69391C93.3627 5.92527 93.4183 3.60456 95.9823 4.62349L95.4523 4.82342C96.0412 5.00277 96.6242 4.82213 97.1628 4.61384C97.6028 4.9417 100.367 5.08956 100.878 5.11399L101.386 5.73884C102.132 5.14613 102.746 4.3567 103.56 3.85656C103.716 4.43063 104.139 4.91277 104.123 5.52927C104.979 5.66813 105.561 5.5942 106.373 5.52156C106.11 5.10113 105.837 4.7617 105.609 4.3567C105.556 4.2622 105.706 4.13749 105.802 4.2262ZM127.866 12.1411L128.768 11.8479C128.911 11.8826 128.996 11.8447 128.957 11.7656C128.919 11.6859 128.856 11.5104 129.001 11.4821L129.159 11.4513C129.303 11.423 129.375 11.5078 129.318 11.6403C129.261 11.7727 129.338 12.0903 129.482 12.1205C129.482 12.1205 129.678 12.1616 129.93 12.2002C130.045 12.242 130.098 12.2812 130.115 12.3217C129.382 12.5261 128.655 12.6091 127.866 12.1411ZM120.374 25.3884C120.014 25.3717 119.654 25.3569 119.293 25.3434C119.531 25.1062 119.776 24.8806 120.053 24.6954C120.128 24.9391 120.259 25.1615 120.374 25.3884ZM122.639 25.6591C122.495 25.6282 122.349 25.598 122.201 25.5691C121.898 25.1191 121.614 24.6639 121.447 24.1355C121.019 24.4389 120.806 24.2197 120.672 23.7421C121.243 23.3653 121.791 22.9558 122.367 22.5862C122.654 22.9732 123.1 23.2625 123.302 23.7086C122.916 24.0365 122.387 24.0603 121.959 24.3103C122.618 24.6163 122.589 25.1287 122.639 25.6591ZM94.8958 3.29084L95.809 3.23363C95.8897 3.22849 96.8783 2.76049 97.2012 2.74056C97.7365 2.70713 98.6238 3.05749 99.4886 3.10442C99.2822 3.21884 99.1823 3.34292 99.1823 3.34292C99.3755 3.44577 99.5118 3.4072 99.6852 3.40399C99.8512 3.21306 99.6957 2.98999 100.231 2.95656C100.766 2.92313 100.645 3.16291 100.836 3.32942L102.27 3.24006C102.346 3.27092 102.421 3.30756 102.496 3.35192C102.24 3.71642 101.84 3.6277 101.45 3.65727C101.621 3.97292 101.725 4.40234 101.441 4.66656L100.524 4.44863C100.655 4.38306 100.742 4.29113 100.719 4.17284C100.526 4.16513 100.229 4.2217 100.066 4.33934L99.2312 4.17477C99.4681 4.07449 100.059 4.07384 100.312 4.05777L99.8056 3.34742C99.2974 3.7132 98.3346 4.1587 98.0237 3.23877C97.9145 3.42842 98.2367 3.64699 97.9072 3.62577L97.7352 3.60777C97.3103 3.54799 97.1476 3.29984 96.8425 3.67334C97.3679 3.81799 97.8159 4.1272 98.3135 4.33934L95.9148 4.17734C95.5549 3.91763 95.2981 3.46891 94.8958 3.29084ZM94.6834 3.22977L94.651 3.33327C94.5703 3.59042 94.3976 3.8212 94.2196 3.99799L94.1554 4.06227L94.1025 3.98963C93.9456 3.77556 93.7696 3.58399 93.5844 3.42713L93.4421 3.30756L94.6834 3.22977ZM91.9215 3.20599L92.0307 3.24199L91.9553 3.3262C91.8348 3.46056 91.7237 3.64184 91.6277 3.87842L91.4808 3.86556C91.4345 3.63606 91.42 3.3802 91.3743 3.13527L91.3512 3.00606L91.4769 3.05234C91.6344 3.10892 91.7832 3.16163 91.9215 3.20599ZM89.4011 3.05749L89.3469 2.3317L89.4514 2.35934C89.8802 2.47056 90.3355 2.63063 90.7702 2.79006L90.8847 2.83249L90.7953 2.91477C90.1872 3.47213 89.7379 3.46056 89.3502 3.23427L89.2622 3.1822L89.4011 3.05749ZM87.7145 2.47056L87.598 2.59913L87.4624 2.75084C87.4154 2.80163 87.3645 2.85177 87.3075 2.8942C87.1911 2.98163 87.0502 3.03627 86.8655 3.01184C86.5321 2.96684 86.3891 2.80613 86.2912 2.61263L86.2383 2.50784C86.2383 2.50784 86.5208 2.41849 86.7081 2.39213C87.0978 2.33684 87.7145 2.47056 87.7145 2.47056ZM85.4211 2.52713L85.2239 2.66856C85.0459 2.79584 84.8917 2.8672 84.766 2.94306C84.6482 3.01377 84.5688 3.08127 84.5205 3.2002L84.4246 3.43292L84.3743 3.18734C84.3485 3.06199 84.3174 2.99449 84.2929 2.92634C84.2651 2.84856 84.2459 2.76884 84.2486 2.62806L84.2492 2.55606L85.4211 2.52713Z" fill="#00C800"/>
<path fill-rule="evenodd" clip-rule="evenodd" d="M15.4776 20.9658V8.15682H10.8134V6.44747H21.8219V8.15682H17.3859V20.9658H15.4776ZM23.4861 20.9735H25.3176V15.6243C25.3176 15.0007 25.3176 14.0557 25.626 13.4925C25.8761 13.0098 26.3221 12.1451 27.7269 12.1451C29.8085 12.1451 29.9832 14.0962 29.9832 15.0007V20.9735H31.8333V14.6593C31.8333 13.1917 31.5594 12.6472 31.3668 12.2448C30.8077 11.0188 29.35 10.4409 27.7374 10.5052C26.8984 10.5393 25.9555 10.7443 25.3183 11.5762V6.45518H23.4867L23.4861 20.9735ZM35.3502 16.2459C35.3118 18.3371 36.0582 19.8858 38.1253 19.8858C38.8962 19.8858 40.2467 19.2423 40.4009 17.7933H42.2126C42.1544 18.2973 42.0776 19.1208 41.3835 19.905C40.96 20.4084 39.9953 21.2525 38.0486 21.2525C35.2807 21.2525 33.557 19.2821 33.557 16.0845C33.557 14.0943 33.9421 12.4453 35.4653 11.339C36.3904 10.6556 37.547 10.5945 38.1061 10.5945C42.0578 10.5945 42.3469 14.597 42.3085 16.2459H35.3502ZM40.4585 14.9184C40.4783 13.9528 40.1071 11.942 38.0684 11.942C36.8933 11.942 35.466 12.6864 35.4276 14.9184H40.4585ZM44.0521 20.951H47.387V9.28311L50.4295 20.9516H53.8987L57.0643 9.38339V20.9516H60.7075L60.6884 6.41211L54.7034 6.45582L52.3967 15.9219L49.6209 6.45582L44.0528 6.43268L44.0521 20.951ZM68.9112 14.4363C64.7472 14.255 62.2989 15.2604 62.2989 18.0157C62.2989 19.8054 63.3404 21.1528 65.7113 21.1528C67.697 21.1528 68.892 19.5033 68.892 19.5033V20.951H72.2852V14.3154C72.2852 13.229 72.0536 12.2846 71.4369 11.661C70.4159 10.6158 68.5645 10.4949 67.6977 10.4949C65.9435 10.4949 64.4401 10.9578 63.6878 11.762C63.085 12.4074 62.9785 13.1062 62.9487 13.5915L66.1685 13.5896C66.191 12.7333 66.9188 12.2756 67.5342 12.2756C68.5625 12.275 69.0144 13.1647 68.9112 14.4363ZM65.8661 17.673C65.8661 18.4175 66.3279 19.0404 67.1954 19.0404C67.5812 19.0404 68.2561 18.879 68.622 18.0755C68.9112 17.432 68.9112 16.6072 68.892 16.1848C67.3496 16.206 65.8661 16.226 65.8661 17.673ZM74.3159 20.951H77.9208V16.6676C77.9208 15.5818 78.2305 13.8705 80.4465 13.8705C80.6972 13.8705 80.7932 13.8307 81.218 13.8705V10.9905C80.3889 10.9706 78.5772 10.781 77.7474 12.0898V10.8555H74.3159V20.951ZM93.5599 20.951L90.0106 15.119L93.0795 10.8562H89.4362L86.1502 15.3883L89.5712 20.9503H93.5599V20.951ZM82.5745 6.43268V20.951H86.1218V6.43268H82.5745ZM105.269 20.951H108.874V16.6676C108.874 15.5818 109.184 13.8705 111.4 13.8705C111.651 13.8705 111.747 13.8307 112.171 13.8705V10.9905C111.342 10.9706 109.53 10.781 108.701 12.0898V10.8555H105.269V20.951ZM96.8882 17.8485C96.7611 17.4564 96.7942 17.0392 96.7942 16.6683H103.741C103.741 14.8985 103.624 13.9335 103.199 13.0689C102.545 11.6411 101.161 10.4949 98.592 10.4949C95.1631 10.4949 93.4454 12.687 93.4454 16.0653C93.4454 19.403 95.6402 21.4125 98.592 21.4125C100.971 21.4125 103.27 20.2078 103.722 17.747H100.271C100.043 18.7415 99.2292 19.1606 98.592 19.1606C97.6696 19.1606 97.1171 18.5538 96.8882 17.8485ZM100.327 14.6169C100.327 13.8975 99.8691 12.7063 98.5914 12.7063C97.0953 12.7063 96.7942 14.1727 96.8379 14.6169H100.327Z" fill="white"/>
</g>
<defs>
<clipPath id="clip0_462_5682">
<rect width="133" height="27" fill="white" transform="translate(0 0.464844)"/>
</clipPath>
</defs>
</svg>
